<svg xmlns="http://www.w3.org/2000/svg" viewBox="0 0 247.6 231.48"><defs><style>.cls-1{fill:#d04826;}.cls-2{fill:#482b64;}.cls-3,.cls-4{fill:#ef7d07;}.cls-4{stroke:#ef7d07;stroke-miterlimit:10;stroke-width:4px;}</style></defs><g id="Layer_2" data-name="Layer 2"><g id="Desing"><path class="cls-1" d="M38,75.27c.85-4.47,5.31-8.34,9.69-7.55-3.94-1.17-7.08-5.56-7.22-9.73a10.89,10.89,0,0,1,6.35-10.05,10.22,10.22,0,0,1,10.31,1.37c-3.59-4.05-2-12.53,2.93-15.32,3.82-2.15,8.68-1.27,12.25,1.06s6.15,5.91,8.62,9.41c12.22,17.33,23.31,35.73,34.64,53.67a119.84,119.84,0,0,1-61.45-4.54c-4.19-1.47-8.39-3.24-11.62-6.27S37.14,79.73,38,75.27Z"/><path class="cls-2" d="M56.49,87c13,8.5,27.46,11.1,42.67,9.65A203.67,203.67,0,0,0,53.91,64.82c-1-.53-.3-2.26.75-1.72A206.2,206.2,0,0,1,98.42,93.5,221.15,221.15,0,0,0,72.07,52c-.74-.92.75-2.07,1.48-1.16A223,223,0,0,1,101.86,96.4l2.48-.33c1.18-.18,1.38,1.66.21,1.84l-1.24.16c1.53,1.48,3.06,3,4.55,4.49.82.84-.68,2-1.48,1.15s-1.79-1.77-2.68-2.65a1,1,0,0,1-1.72,0c-.41-.91-.84-1.8-1.25-2.7-16.21,1.8-31.62-.85-45.39-9.88C54.35,87.88,55.51,86.4,56.49,87Z"/><path class="cls-1" d="M138.46,70.11c2.31-4.7,4.67-9.46,8.08-13.44s8.08-7.14,13.21-7.62,10.61,2.26,12.29,7.12c1.25,3.61-.77,8.71-4,11.31a11.76,11.76,0,0,1,6.75-.06,9.11,9.11,0,0,1,6.43,7.81A10.65,10.65,0,0,1,179.28,82a7.57,7.57,0,0,1,8.22,3.56c2.14,4.12.37,9.57-3,12.89s-8.09,4.91-12.66,6a75,75,0,0,1-48-4.85C128.79,89.4,133.47,80.24,138.46,70.11Z"/><path class="cls-2" d="M126.28,101.28l2-1.1a.76.76,0,0,1,0-.21c2.6-7.59,5.34-15.09,9.68-21.92,4.74-7.46,12.18-12.16,19.18-17.2a.91.91,0,0,1,1.1,1.46c-7,5-13.91,9.61-18.84,16.86-4.06,6-6.52,13-8.84,19.77.69-.37,1.36-.75,2.05-1.13a.74.74,0,0,1,.94-.51h0c4.27-2.32,8.52-4.69,12.7-7.18,6.31-3.75,14.68-7.59,19.31-13.49a.91.91,0,0,1,1.43,1.13C162.6,83.44,155,87,149,90.66c-4.12,2.51-8.29,4.9-12.5,7.23a42.22,42.22,0,0,0,14.38-.43c6-1.06,12.94-2.33,18.08-5.76,1-.67,2.11.79,1.1,1.46-5.11,3.41-11.51,4.53-17.37,5.82-6.25,1.38-12.56,1.8-18.72.3-2.31,1.25-4.63,2.49-7,3.7C125.89,103.54,125.22,101.83,126.28,101.28Z"/><path class="cls-3" d="M78.19,11.73A11.47,11.47,0,0,1,91,9.39c4.1,2,9.42,7.13,8.76,11.74,1-6.17,2.14-12.83,6.65-17.21C111-.6,118.83-1.31,124,2.32s9.47,12.63,6.77,18.54c2.48-3.74,5-7.56,8.56-10.3s8.33-4.23,12.41-2.7c6.94,2.59,8.33,11.79,7.84,19.32a110.81,110.81,0,0,1-34.16,72.43c-9.74,1.56-21-4.87-27.16-12.41a109.57,109.57,0,0,1-24-58.09C73.67,23,73.85,16.12,78.19,11.73Z"/><path class="cls-2" d="M89.86,30.06c0-1.19,1.78-1.46,1.83-.26a103.22,103.22,0,0,0,23.19,61.56,481.43,481.43,0,0,1-.25-72.16c.09-1.2,1.91-.95,1.82.24a478,478,0,0,0,.36,72.89c8.47-8,14.6-16.49,18.27-27.72,3.74-11.5,4.32-23.78,5-35.68.07-1.2,1.88-.95,1.81.24-.71,12.18-1.57,24.34-5.15,36.14S126.2,86.08,117.28,94.4a.83.83,0,0,1-.27.74c.06,1.15-1.72,1.4-1.82.22,0-.26,0-.53-.06-.79A104.75,104.75,0,0,1,89.86,30.06Z"/><path class="cls-2" d="M155.58,105.15c-26.77,13.18-60.21,10.27-83.47-7.27,15.54,2.91,33-2.24,46-11.86C126.48,97.77,141.09,104.21,155.58,105.15Z"/><path class="cls-4" d="M2.76,215.56c-3.24-1.73,4.83-11.17,6.2-12.41,8.59-7.75,21.12-9.67,32.92-9.59,25.63.19,50.65,8.19,75.63,14.56s51.37,11.13,76,4.87c10.71-2.71,21-7.61,28.62-15.39S234.51,178.94,233.5,168c-1.15-12.39-9.78-23.81-21.19-29.33s-25.16-5.31-36.5-.28-20.27,14.58-25.35,25.79c-.12-11.42,5.92-22.31,14.95-29.19s20.75-9.93,32.32-9.62c13.14.35,26.6,5.16,35.78,14.7,12.44,12.93,15.17,33.2,8.72,49.4s-21,28.31-37.52,34.42-34.85,6.68-52.56,4.33-35-7.51-52.16-12.63S65.54,205.32,47.82,203c-10-1.28-20.53-1.56-29.54,2.57a36,36,0,0,0-7.72,4.91c-1.66,1.36-4.25,5.35-6.52,5.31A2.71,2.71,0,0,1,2.76,215.56Z"/><path class="cls-4" d="M124.42,170C112,193.9,79.6,163.28,98.77,149.61,111,140.88,131.76,155.94,124.42,170Z"/><path class="cls-4" d="M74.05,164.71c-7.32,14-26.38-4-15.1-12C66.17,147.54,78.37,156.41,74.05,164.71Z"/><path class="cls-4" d="M40.85,168.64c-4.4,8.43-15.85-2.39-9.06-7.22C36.11,158.33,43.45,163.65,40.85,168.64Z"/><path class="cls-4" d="M18,179.24c-2.83,5.44-10.2-1.54-5.83-4.65C14.94,172.6,19.66,176,18,179.24Z"/></g></g></svg>