<svg xmlns="http://www.w3.org/2000/svg" viewBox="0 0 388.73 492.03">
  <defs>
    <style>.cls-1{fill:#1d1d1b;}.cls-2{fill:#fff;}</style>
  </defs>
  <title>Logo-Short</title>
  <g id="Layer_2">
    <g id="Empty_Tray">
      <path class="cls-1"
            d="M256.17,0c2.55.55,5.12,1.05,7.65,1.67a65.75,65.75,0,0,1,29.86,16.22c11.64,10.9,19.08,24.29,23.44,39.48a40.48,40.48,0,0,1,1.3,7.08,83.66,83.66,0,0,1,.34,16,69.14,69.14,0,0,1-10.45,31,75.86,75.86,0,0,1-14.75,17c-11.3,9.78-24.25,16.65-38.25,21.64-3.59,1.28-7.27,2.32-10.91,3.48-.63.2-1.25.4-1.86.63a1.48,1.48,0,0,0-1,1.54q.28,6,.62,12.09c.08,1.53.24,3.05.33,4.57q.62,10.46,1.21,20.9c.22,3.71.29,7.41.65,11.11.46,4.78.55,9.58.89,14.37.29,4,.71,8,1.08,12.06.25,2.82.49,5.65.77,8.47.44,4.45.91,8.89,1.37,13.34,0,.22,0,.44.08.65.15.8.66,1.18,1.38,1a23.93,23.93,0,0,0,2.74-1.07c1.87-.9,3.7-1.89,5.56-2.79,3-1.44,5-.54,6,2.59a6.4,6.4,0,0,1-3.18,8c-5.56,2.78-11.16,5.5-16.86,8A346,346,0,0,1,189,287.42c-9.85,2.44-19.78,4.49-29.8,6.07-5.71.9-11.44,1.64-17.18,2.32-6.18.73-12.37,1.25-18.57,1.6-6.53.36-13.09.19-19.64.21a6.87,6.87,0,0,1-2.24-.4c-2.85-1-4.16-3.75-3.4-6.92a5,5,0,0,1,5.68-3.83,54,54,0,0,0,7.19.26,13.62,13.62,0,0,0,2.91-.35c2.22-.52,2.54-1,2.28-3.16-.11-1-.3-1.94-.41-2.91-.61-5.2-1.24-10.4-1.81-15.6-.55-5-1-10-1.54-15q-.84-8.13-1.69-16.27c-.27-2.6-.53-5.2-.75-7.81-.51-6-1-12-1.5-17.93-.34-4-.75-8-1.06-12.06-.34-4.35-.58-8.71-.89-13.06-.09-1.3-.22-2.61-.43-3.89a1,1,0,0,0-1.41-.93c-.63.18-1.24.41-1.86.63a131.81,131.81,0,0,1-25.35,6.36,71.35,71.35,0,0,1-12.39.91c-2.18-.06-4.37,0-6.55,0a69.46,69.46,0,0,1-25.81-5.25c-11.19-4.63-19.9-12.08-25.67-22.8a56.5,56.5,0,0,1-6-18.61A9,9,0,0,0,0,135V121.86a6.87,6.87,0,0,0,1.09-3c.2-1.4.44-2.8.71-4.19a77.34,77.34,0,0,1,20.84-40A119.49,119.49,0,0,1,46.86,55.75,224.9,224.9,0,0,1,74.62,41.83a52.88,52.88,0,0,1,18.76-4,99.83,99.83,0,0,1,23.07,2A120.39,120.39,0,0,1,148.6,50.57c4.09,2.08,3.59,2.56,8.31-.28a231.35,231.35,0,0,0,32.39-23.8c5-4.35,10-8.73,15.37-12.73A65.5,65.5,0,0,1,231.12,1.4C233.57.91,236,.47,238.48,0ZM138.75,284.78a123.79,123.79,0,0,0,19.9-1.16,198,198,0,0,0,23.42-4.55,265.31,265.31,0,0,0,29-9.23c8.48-3.19,16.8-6.75,25.05-10.49,2.09-1,1.94-1.46,1.76-3.28-.59-6.08-1.07-12.17-1.59-18.25-.25-2.94-.49-5.87-.75-8.81-.35-4-.76-8-1.06-12.06-.33-4.35-.4-8.72-.88-13-.36-3.38-.42-6.76-.68-10.13-.35-4.56-.77-9.13-1-13.7-.34-5.55-.57-11.11-.85-16.67,0-.43-.07-.87-.1-1.3-.35-6.1-.78-12.2-1-18.3-.17-4.12.07-4.36,4.09-4.35A70.94,70.94,0,0,0,247.61,138,70.21,70.21,0,0,0,276,126,54.89,54.89,0,0,0,297.86,93.2c2.36-10,2-20.14,0-30.21a14.71,14.71,0,0,0-.92-2.79,86.05,86.05,0,0,0-9.69-17.42A60.81,60.81,0,0,0,269.12,26a52,52,0,0,0-22.21-7.31,63.05,63.05,0,0,0-22.07,1.92,47.55,47.55,0,0,0-18.26,9.23c-2.69,2.23-5.4,4.44-8.06,6.7a252.87,252.87,0,0,1-27,20.19c-9.64,6.21-19.68,11.74-29.89,17-8.16,4.19-16.5,8-24.85,11.77-2.09.94-4.21,1.83-6.33,2.69a9.18,9.18,0,0,1-6.72.07,4.87,4.87,0,0,1-2.6-7.45,7.27,7.27,0,0,1,3.38-3c2-.89,4-1.75,6-2.59,6.74-2.85,13.49-5.65,20-9.1a35.41,35.41,0,0,0,5.24-3.33,5,5,0,0,0,.9-.93.6.6,0,0,0-.13-.86,9.54,9.54,0,0,0-1.71-1,82.6,82.6,0,0,0-27.88-6.64,75.94,75.94,0,0,0-20.17,1.57A85.33,85.33,0,0,0,44,77.78,95.17,95.17,0,0,0,18.7,120.36a50.5,50.5,0,0,0-2,8.93,36.36,36.36,0,0,0,7.38,26.78A42.74,42.74,0,0,0,42,169.44a59.07,59.07,0,0,0,22.26,4.73,90.82,90.82,0,0,0,17.28-1,94.47,94.47,0,0,0,29.43-10.6c.66-.37,1.33-.75,2-1.06,1-.45,1.66-.07,1.79,1.1.24,2.17.47,4.34.6,6.52.31,5.12.53,10.24.84,15.36.21,3.48.5,7,.78,10.44.35,4.24.74,8.48,1.1,12.72.28,3.36.51,6.74.85,10.1.53,5.43,1.14,10.85,1.7,16.27.52,5,1,10,1.54,15,.8,6.82,1.66,13.64,2.54,20.46.57,4.43,1.21,8.86,1.87,13.28.26,1.72.58,2,2.35,2C132.2,284.83,135.48,284.78,138.75,284.78Z"/>
      <path
        d="M43.24,492a35,35,0,0,0-6.1-1.1,53.59,53.59,0,0,1-13.81-3.88,27.19,27.19,0,0,1-5.14-2.86,8.87,8.87,0,0,1-1.87-1.8c-1.14-1.58-.34-3.31,1.63-3.6a8.11,8.11,0,0,1,3.56.26,58.11,58.11,0,0,0,9.58,2c.87.11,1.74.23,2.6.26a93.6,93.6,0,0,0,17.63-.71,131.08,131.08,0,0,0,15.62-3.54,129.39,129.39,0,0,0,30.59-13.92A63.06,63.06,0,0,0,111.14,452a75.11,75.11,0,0,1,9-8.55c6-4.63,12.39-8.54,19.67-10.86,2.91-.92,5.79-1.94,8.69-2.91a75.17,75.17,0,0,0,21.31-11.28c1.57-1.17,3-2.51,4.49-3.81,3.5-3.13,7-6.24,10.45-9.43a51.31,51.31,0,0,0,9.45-12.08,14.46,14.46,0,0,1,3.5-4.27,9.07,9.07,0,0,1,7.36-1.93,8.61,8.61,0,0,1,7.37,7.67,20.26,20.26,0,0,1-1,9.36,30.53,30.53,0,0,1-3.53,7.35,61.69,61.69,0,0,1-9.66,11.06c-8.77,8.05-18.78,14.18-29.33,19.54a70.52,70.52,0,0,1-18.48,6.43,38.91,38.91,0,0,0-13.09,4.93,13.43,13.43,0,0,1-1.44.79,55.81,55.81,0,0,0-15.56,10.14c-8.33,7.6-18,13.1-28.32,17.35a158.93,158.93,0,0,1-22.22,7.77c-4.36,1.06-8.8,1.55-13.21,2.24-.75.11-1.48.36-2.21.54Z"/>
      <path
        d="M258,407c-11.27-.65-22.35-2.22-32.88-6.56a42.46,42.46,0,0,1-7.47-4.05c-5.69-3.84-5.55-12.06-.84-16.21a8.62,8.62,0,0,1,8.52-2,25.48,25.48,0,0,1,2.75,1.05c1.11.45,2.21.92,3.32,1.38a37.08,37.08,0,0,0,15,2.66A54.9,54.9,0,0,0,264,380.23a153.94,153.94,0,0,0,25.46-11.89c3.79-2.16,7.62-4.27,11.4-6.44,4.32-2.48,9.05-3.78,13.83-4.89a90.65,90.65,0,0,1,15.85-2.18c9.58-.51,19.12-1.46,28.32-4.52a54.23,54.23,0,0,0,16.48-8.54,38.11,38.11,0,0,0,7.63-7.59,7.39,7.39,0,0,1,2.3-2.29,2.12,2.12,0,0,1,3.17,1.2,5.28,5.28,0,0,1,0,3.22,17,17,0,0,1-1.08,2.74,31.15,31.15,0,0,1-8,10.27,67.14,67.14,0,0,1-24.21,13.29c-6,1.75-11.83,3.81-17.74,5.75A113.07,113.07,0,0,0,319,376.68c-2.3,1.24-4.61,2.48-7,3.58a112,112,0,0,0-18.39,11.27,138.48,138.48,0,0,1-14.72,9.76,41.92,41.92,0,0,1-16.06,5.24A32,32,0,0,1,258,407Z"/>
      <path
        d="M141.41,381.45c-3.7-.31-7.73-.56-11.6-1.86a20.66,20.66,0,0,1-7.09-3.95c-5-4.28-3.74-14.4,2.91-17.53a10.4,10.4,0,0,1,7.66-.2A29.36,29.36,0,0,1,136,359a33.67,33.67,0,0,0,11.43,2.54c12.55.57,23.62-3.28,33.45-10.95a13.25,13.25,0,0,1,1.59-1.14c1.73-1,3.5-1.3,5.23,0a5.24,5.24,0,0,1,2.12,5.18,9.54,9.54,0,0,1-1.21,3.37,31,31,0,0,1-6.36,8.26,52.37,52.37,0,0,1-15.71,9.89A72.21,72.21,0,0,1,141.41,381.45Z"/>
      <path
        d="M228.72,354.7a19.94,19.94,0,0,1-7.55-1.06,29.26,29.26,0,0,1-3.61-1.51,9.44,9.44,0,0,1-5.54-9.25c0-4.47,1.6-8.09,5.57-10.42,2.72-1.6,5.69-1.48,8.58-.76a43.06,43.06,0,0,0,10.05,1,31.67,31.67,0,0,0,11.5-2.19,44.25,44.25,0,0,0,15.46-9.61c1.33-1.3,2.6-2.65,3.91-4a15.18,15.18,0,0,1,1.92-1.76,4.35,4.35,0,0,1,6.72,4.72,28,28,0,0,1-1.44,3.65,53.83,53.83,0,0,1-12.43,16.3,62.42,62.42,0,0,1-18.62,12A37.15,37.15,0,0,1,228.72,354.7Z"/>
      <path class="cls-2"
            d="M138.75,284.78a123.79,123.79,0,0,0,19.9-1.16,198,198,0,0,0,23.42-4.55,265.31,265.31,0,0,0,29-9.23c8.48-3.19,16.8-6.75,25.05-10.49,2.09-1,1.94-1.46,1.76-3.28-.59-6.08-1.07-12.17-1.59-18.25-.25-2.94-.49-5.87-.75-8.81-.35-4-.76-8-1.06-12.06-.33-4.35-.4-8.72-.88-13-.36-3.38-.42-6.76-.68-10.13-.35-4.56-.77-9.13-1-13.7-.34-5.55-.57-11.11-.85-16.67,0-.43-.07-.87-.1-1.3-.35-6.1-.78-12.2-1-18.3-.17-4.12.07-4.36,4.09-4.35A70.94,70.94,0,0,0,247.61,138,70.21,70.21,0,0,0,276,126,54.89,54.89,0,0,0,297.86,93.2c2.36-10,2-20.14,0-30.21a14.71,14.71,0,0,0-.92-2.79,86.05,86.05,0,0,0-9.69-17.42A60.81,60.81,0,0,0,269.12,26a52,52,0,0,0-22.21-7.31,63.05,63.05,0,0,0-22.07,1.92,47.55,47.55,0,0,0-18.26,9.23c-2.69,2.23-5.4,4.44-8.06,6.7a252.87,252.87,0,0,1-27,20.19c-9.64,6.21-19.68,11.74-29.89,17-8.16,4.19-16.5,8-24.85,11.77-2.09.94-4.21,1.83-6.33,2.69a9.18,9.18,0,0,1-6.72.07,4.87,4.87,0,0,1-2.6-7.45,7.27,7.27,0,0,1,3.38-3c2-.89,4-1.75,6-2.59,6.74-2.85,13.49-5.65,20-9.1a35.41,35.41,0,0,0,5.24-3.33,5,5,0,0,0,.9-.93.6.6,0,0,0-.13-.86,9.54,9.54,0,0,0-1.71-1,82.6,82.6,0,0,0-27.88-6.64,75.94,75.94,0,0,0-20.17,1.57A85.33,85.33,0,0,0,44,77.78,95.17,95.17,0,0,0,18.7,120.36a50.5,50.5,0,0,0-2,8.93,36.36,36.36,0,0,0,7.38,26.78A42.74,42.74,0,0,0,42,169.44a59.07,59.07,0,0,0,22.26,4.73,90.82,90.82,0,0,0,17.28-1,94.47,94.47,0,0,0,29.43-10.6c.66-.37,1.33-.75,2-1.06,1-.45,1.66-.07,1.79,1.1.24,2.17.47,4.34.6,6.52.31,5.12.53,10.24.84,15.36.21,3.48.5,7,.78,10.44.35,4.24.74,8.48,1.1,12.72.28,3.36.51,6.74.85,10.1.53,5.43,1.14,10.85,1.7,16.27.52,5,1,10,1.54,15,.8,6.82,1.66,13.64,2.54,20.46.57,4.43,1.21,8.86,1.87,13.28.26,1.72.58,2,2.35,2C132.2,284.83,135.48,284.78,138.75,284.78Z"/>
    </g>
  </g>
</svg>
