<svg xmlns="http://www.w3.org/2000/svg" viewBox="0 0 114.8 100"><defs><style>.cls-1{fill:#686868;}</style></defs><title>Bocadillos</title><g id="Layer_2" data-name="Layer 2"><g id="Layer_1-2" data-name="Layer 1"><path class="cls-1" d="M57.4,55.82c-25.53,0-47.17-6.4-54.62-15.24A1.59,1.59,0,0,0,0,41.65V90.21A10,10,0,0,0,10.2,100h94.4a10,10,0,0,0,10.2-9.79V41.65A1.59,1.59,0,0,0,112,40.58C104.57,49.42,82.93,55.82,57.4,55.82Z"/><path class="cls-1" d="M80.17,26.69c0-.07,0-.14,0-.2A13.2,13.2,0,0,0,70.6,13.82c0-.19.06-.38.06-.58a13.24,13.24,0,1,0-26.48,0c0,.2,0,.38.06.57a13.2,13.2,0,0,0-9.61,12.68c0,.06,0,.13,0,.2C19.56,29.47,11.29,34.5,10.24,37,11.73,40.5,27.79,49.22,57.4,49.22S103.07,40.5,104.56,37C103.51,34.5,95.24,29.47,80.17,26.69Z"/></g></g></svg>