<svg xmlns="http://www.w3.org/2000/svg" viewBox="0 0 94.55 103.35"><defs><style>.cls-1{fill:#686868;}</style></defs><title>Bocadillos</title><g id="Layer_2" data-name="Layer 2"><g id="Layer_1-2" data-name="Layer 1"><path class="cls-1" d="M0,101.35a2,2,0,0,0,2,2H74.84A2,2,0,0,0,76.3,100L3.46,22.2A2,2,0,0,0,0,23.56Z"/><path class="cls-1" d="M83,99.64a2,2,0,0,1-1.45.54,2,2,0,0,1-1.41-.66A65.84,65.84,0,0,1,69.63,84.35a60.12,60.12,0,0,0-10.8-15.18A60.18,60.18,0,0,0,44.39,57.4,67.22,67.22,0,0,1,28.52,44.46,67.12,67.12,0,0,1,16.66,27.79,58.78,58.78,0,0,0,7.18,14.05a2,2,0,0,1,.12-2.8l2.18-2a2,2,0,0,1,2.85.13A65.74,65.74,0,0,1,22.82,24.51a60.12,60.12,0,0,0,10.8,15.18A60.18,60.18,0,0,0,48.06,51.46,67.22,67.22,0,0,1,63.93,64.4,67.31,67.31,0,0,1,75.79,81.07a59,59,0,0,0,9.47,13.74,2,2,0,0,1-.12,2.8Z"/><path class="cls-1" d="M94.07,86.08a2,2,0,0,1-.15,2.76l-2.23,2.08a2,2,0,0,1-2.85-.12A66,66,0,0,1,78.35,75.63a60.12,60.12,0,0,0-10.8-15.18A60.08,60.08,0,0,0,53.11,48.67,66.85,66.85,0,0,1,37.25,35.74,67.23,67.23,0,0,1,25.38,19.06,59.41,59.41,0,0,0,15.91,5.32,2,2,0,0,1,16,2.53l2.12-2A2,2,0,0,1,19.63,0,2,2,0,0,1,21,.7Z"/></g></g></svg>