<svg xmlns="http://www.w3.org/2000/svg" viewBox="0 0 100 105.88"><defs><style>.cls-1{fill:#686868;}</style></defs><title>Favoritos</title><g id="Layer_2" data-name="Layer 2"><g id="Layer_1-2" data-name="Layer 1"><path class="cls-1" d="M84.29,71.48a6.76,6.76,0,0,1,1.83-5.85l10-10.11A11.13,11.13,0,0,1,87,45.15,11.14,11.14,0,0,1,76.7,31.76l-1.25-.19A6.43,6.43,0,0,1,70.64,28L59.09,3.69a6.28,6.28,0,0,0-11.44,0L36.1,28a6.43,6.43,0,0,1-4.81,3.62L5.47,35.46A6.45,6.45,0,0,0,.31,40a6.78,6.78,0,0,0,1.62,6.78L20.62,65.63a6.76,6.76,0,0,1,1.83,5.85L18,98.15a6.72,6.72,0,0,0,2.54,6.47,6.2,6.2,0,0,0,6.72.5L50.4,92.53a6.2,6.2,0,0,1,5.94,0l23.1,12.59a6.2,6.2,0,0,0,6.72-.5,6.72,6.72,0,0,0,2.54-6.47Z"/><path class="cls-1" d="M89.45,44.41c2.73-1.32,1.58-3.78,4.88-4.62L100,50.93s-4.64.44-7.24-1.25C90.37,48.12,89.45,44.41,89.45,44.41Z"/><path class="cls-1" d="M81.12,34a10.37,10.37,0,0,1,0-2.81c2.5-.07,2.46-2.3,5.23-1.82l.23,4.89c.11,2.16.5,4-1.42,4.27C84,38.71,81.5,37,81.12,34Z"/></g></g></svg>