<svg xmlns="http://www.w3.org/2000/svg" viewBox="0 0 1152.61 492.03">
  <defs>
    <style>
      .cls-1{fill:#1d1d1b;}.cls-2{fill:#fff;}.cls-3{fill:#067a35;stroke:#1d1d1b;stroke-miterlimit:10;stroke-width:2px;}
    </style>
  </defs>
  <title>Logo-Full</title>
  <g id="Layer_2">
    <g id="Empty_Tray">
      <path class="cls-1"
            d="M256.17,0c2.55.55,5.12,1.05,7.65,1.67a65.75,65.75,0,0,1,29.86,16.22c11.64,10.9,19.08,24.29,23.44,39.48a40.48,40.48,0,0,1,1.3,7.08,83.66,83.66,0,0,1,.34,16,69.14,69.14,0,0,1-10.45,31,75.86,75.86,0,0,1-14.75,17c-11.3,9.78-24.25,16.65-38.25,21.64-3.59,1.28-7.27,2.32-10.91,3.48-.63.2-1.25.4-1.86.63a1.48,1.48,0,0,0-1,1.54q.28,6,.62,12.09c.08,1.53.24,3.05.33,4.57q.62,10.46,1.21,20.9c.22,3.71.29,7.41.65,11.11.46,4.78.55,9.58.89,14.37.29,4,.71,8,1.08,12.06.25,2.82.49,5.65.77,8.47.44,4.45.91,8.89,1.37,13.34,0,.22,0,.44.08.65.15.8.66,1.18,1.38,1a23.93,23.93,0,0,0,2.74-1.07c1.87-.9,3.7-1.89,5.56-2.79,3-1.44,5-.54,6,2.59a6.4,6.4,0,0,1-3.18,8c-5.56,2.78-11.16,5.5-16.86,8A346,346,0,0,1,189,287.42c-9.85,2.44-19.78,4.49-29.8,6.07-5.71.9-11.44,1.64-17.18,2.32-6.18.73-12.37,1.25-18.57,1.6-6.53.36-13.09.19-19.64.21a6.87,6.87,0,0,1-2.24-.4c-2.85-1-4.16-3.75-3.4-6.92a5,5,0,0,1,5.68-3.83,54,54,0,0,0,7.19.26,13.62,13.62,0,0,0,2.91-.35c2.22-.52,2.54-1,2.28-3.16-.11-1-.3-1.94-.41-2.91-.61-5.2-1.24-10.4-1.81-15.6-.55-5-1-10-1.54-15q-.84-8.13-1.69-16.27c-.27-2.6-.53-5.2-.75-7.81-.51-6-1-12-1.5-17.93-.34-4-.75-8-1.06-12.06-.34-4.35-.58-8.71-.89-13.06-.09-1.3-.22-2.61-.43-3.89a1,1,0,0,0-1.41-.93c-.63.18-1.24.41-1.86.63a131.81,131.81,0,0,1-25.35,6.36,71.35,71.35,0,0,1-12.39.91c-2.18-.06-4.37,0-6.55,0a69.46,69.46,0,0,1-25.81-5.25c-11.19-4.63-19.9-12.08-25.67-22.8a56.5,56.5,0,0,1-6-18.61A9,9,0,0,0,0,135V121.86a6.87,6.87,0,0,0,1.09-3c.2-1.4.44-2.8.71-4.19a77.34,77.34,0,0,1,20.84-40A119.49,119.49,0,0,1,46.86,55.75,224.9,224.9,0,0,1,74.62,41.83a52.88,52.88,0,0,1,18.76-4,99.83,99.83,0,0,1,23.07,2A120.39,120.39,0,0,1,148.6,50.57c4.09,2.08,3.59,2.56,8.31-.28a231.35,231.35,0,0,0,32.39-23.8c5-4.35,10-8.73,15.37-12.73A65.5,65.5,0,0,1,231.12,1.4C233.57.91,236,.47,238.48,0ZM138.75,284.78a123.79,123.79,0,0,0,19.9-1.16,198,198,0,0,0,23.42-4.55,265.31,265.31,0,0,0,29-9.23c8.48-3.19,16.8-6.75,25.05-10.49,2.09-1,1.94-1.46,1.76-3.28-.59-6.08-1.07-12.17-1.59-18.25-.25-2.94-.49-5.87-.75-8.81-.35-4-.76-8-1.06-12.06-.33-4.35-.4-8.72-.88-13-.36-3.38-.42-6.76-.68-10.13-.35-4.56-.77-9.13-1-13.7-.34-5.55-.57-11.11-.85-16.67,0-.43-.07-.87-.1-1.3-.35-6.1-.78-12.2-1-18.3-.17-4.12.07-4.36,4.09-4.35A70.94,70.94,0,0,0,247.61,138,70.21,70.21,0,0,0,276,126,54.89,54.89,0,0,0,297.86,93.2c2.36-10,2-20.14,0-30.21a14.71,14.71,0,0,0-.92-2.79,86.05,86.05,0,0,0-9.69-17.42A60.81,60.81,0,0,0,269.12,26a52,52,0,0,0-22.21-7.31,63.05,63.05,0,0,0-22.07,1.92,47.55,47.55,0,0,0-18.26,9.23c-2.69,2.23-5.4,4.44-8.06,6.7a252.87,252.87,0,0,1-27,20.19c-9.64,6.21-19.68,11.74-29.89,17-8.16,4.19-16.5,8-24.85,11.77-2.09.94-4.21,1.83-6.33,2.69a9.18,9.18,0,0,1-6.72.07,4.87,4.87,0,0,1-2.6-7.45,7.27,7.27,0,0,1,3.38-3c2-.89,4-1.75,6-2.59,6.74-2.85,13.49-5.65,20-9.1a35.41,35.41,0,0,0,5.24-3.33,5,5,0,0,0,.9-.93.6.6,0,0,0-.13-.86,9.54,9.54,0,0,0-1.71-1,82.6,82.6,0,0,0-27.88-6.64,75.94,75.94,0,0,0-20.17,1.57A85.33,85.33,0,0,0,44,77.78,95.17,95.17,0,0,0,18.7,120.36a50.5,50.5,0,0,0-2,8.93,36.36,36.36,0,0,0,7.38,26.78A42.74,42.74,0,0,0,42,169.44a59.07,59.07,0,0,0,22.26,4.73,90.82,90.82,0,0,0,17.28-1,94.47,94.47,0,0,0,29.43-10.6c.66-.37,1.33-.75,2-1.06,1-.45,1.66-.07,1.79,1.1.24,2.17.47,4.34.6,6.52.31,5.12.53,10.24.84,15.36.21,3.48.5,7,.78,10.44.35,4.24.74,8.48,1.1,12.72.28,3.36.51,6.74.85,10.1.53,5.43,1.14,10.85,1.7,16.27.52,5,1,10,1.54,15,.8,6.82,1.66,13.64,2.54,20.46.57,4.43,1.21,8.86,1.87,13.28.26,1.72.58,2,2.35,2C132.2,284.83,135.48,284.78,138.75,284.78Z"/>
      <path
        d="M43.24,492a35,35,0,0,0-6.1-1.1,53.59,53.59,0,0,1-13.81-3.88,27.19,27.19,0,0,1-5.14-2.86,8.87,8.87,0,0,1-1.87-1.8c-1.14-1.58-.34-3.31,1.63-3.6a8.11,8.11,0,0,1,3.56.26,58.11,58.11,0,0,0,9.58,2c.87.11,1.74.23,2.6.26a93.6,93.6,0,0,0,17.63-.71,131.08,131.08,0,0,0,15.62-3.54,129.39,129.39,0,0,0,30.59-13.92A63.06,63.06,0,0,0,111.14,452a75.11,75.11,0,0,1,9-8.55c6-4.63,12.39-8.54,19.67-10.86,2.91-.92,5.79-1.94,8.69-2.91a75.17,75.17,0,0,0,21.31-11.28c1.57-1.17,3-2.51,4.49-3.81,3.5-3.13,7-6.24,10.45-9.43a51.31,51.31,0,0,0,9.45-12.08,14.46,14.46,0,0,1,3.5-4.27,9.07,9.07,0,0,1,7.36-1.93,8.61,8.61,0,0,1,7.37,7.67,20.26,20.26,0,0,1-1,9.36,30.53,30.53,0,0,1-3.53,7.35,61.69,61.69,0,0,1-9.66,11.06c-8.77,8.05-18.78,14.18-29.33,19.54a70.52,70.52,0,0,1-18.48,6.43,38.91,38.91,0,0,0-13.09,4.93,13.43,13.43,0,0,1-1.44.79,55.81,55.81,0,0,0-15.56,10.14c-8.33,7.6-18,13.1-28.32,17.35a158.93,158.93,0,0,1-22.22,7.77c-4.36,1.06-8.8,1.55-13.21,2.24-.75.11-1.48.36-2.21.54Z"/>
      <path
        d="M258,407c-11.27-.65-22.35-2.22-32.88-6.56a42.46,42.46,0,0,1-7.47-4.05c-5.69-3.84-5.55-12.06-.84-16.21a8.62,8.62,0,0,1,8.52-2,25.48,25.48,0,0,1,2.75,1.05c1.11.45,2.21.92,3.32,1.38a37.08,37.08,0,0,0,15,2.66A54.9,54.9,0,0,0,264,380.23a153.94,153.94,0,0,0,25.46-11.89c3.79-2.16,7.62-4.27,11.4-6.44,4.32-2.48,9.05-3.78,13.83-4.89a90.65,90.65,0,0,1,15.85-2.18c9.58-.51,19.12-1.46,28.32-4.52a54.23,54.23,0,0,0,16.48-8.54,38.11,38.11,0,0,0,7.63-7.59,7.39,7.39,0,0,1,2.3-2.29,2.12,2.12,0,0,1,3.17,1.2,5.28,5.28,0,0,1,0,3.22,17,17,0,0,1-1.08,2.74,31.15,31.15,0,0,1-8,10.27,67.14,67.14,0,0,1-24.21,13.29c-6,1.75-11.83,3.81-17.74,5.75A113.07,113.07,0,0,0,319,376.68c-2.3,1.24-4.61,2.48-7,3.58a112,112,0,0,0-18.39,11.27,138.48,138.48,0,0,1-14.72,9.76,41.92,41.92,0,0,1-16.06,5.24A32,32,0,0,1,258,407Z"/>
      <path
        d="M141.41,381.45c-3.7-.31-7.73-.56-11.6-1.86a20.66,20.66,0,0,1-7.09-3.95c-5-4.28-3.74-14.4,2.91-17.53a10.4,10.4,0,0,1,7.66-.2A29.36,29.36,0,0,1,136,359a33.67,33.67,0,0,0,11.43,2.54c12.55.57,23.62-3.28,33.45-10.95a13.25,13.25,0,0,1,1.59-1.14c1.73-1,3.5-1.3,5.23,0a5.24,5.24,0,0,1,2.12,5.18,9.54,9.54,0,0,1-1.21,3.37,31,31,0,0,1-6.36,8.26,52.37,52.37,0,0,1-15.71,9.89A72.21,72.21,0,0,1,141.41,381.45Z"/>
      <path
        d="M228.72,354.7a19.94,19.94,0,0,1-7.55-1.06,29.26,29.26,0,0,1-3.61-1.51,9.44,9.44,0,0,1-5.54-9.25c0-4.47,1.6-8.09,5.57-10.42,2.72-1.6,5.69-1.48,8.58-.76a43.06,43.06,0,0,0,10.05,1,31.67,31.67,0,0,0,11.5-2.19,44.25,44.25,0,0,0,15.46-9.61c1.33-1.3,2.6-2.65,3.91-4a15.18,15.18,0,0,1,1.92-1.76,4.35,4.35,0,0,1,6.72,4.72,28,28,0,0,1-1.44,3.65,53.83,53.83,0,0,1-12.43,16.3,62.42,62.42,0,0,1-18.62,12A37.15,37.15,0,0,1,228.72,354.7Z"/>
      <path class="cls-2"
            d="M138.75,284.78a123.79,123.79,0,0,0,19.9-1.16,198,198,0,0,0,23.42-4.55,265.31,265.31,0,0,0,29-9.23c8.48-3.19,16.8-6.75,25.05-10.49,2.09-1,1.94-1.46,1.76-3.28-.59-6.08-1.07-12.17-1.59-18.25-.25-2.94-.49-5.87-.75-8.81-.35-4-.76-8-1.06-12.06-.33-4.35-.4-8.72-.88-13-.36-3.38-.42-6.76-.68-10.13-.35-4.56-.77-9.13-1-13.7-.34-5.55-.57-11.11-.85-16.67,0-.43-.07-.87-.1-1.3-.35-6.1-.78-12.2-1-18.3-.17-4.12.07-4.36,4.09-4.35A70.94,70.94,0,0,0,247.61,138,70.21,70.21,0,0,0,276,126,54.89,54.89,0,0,0,297.86,93.2c2.36-10,2-20.14,0-30.21a14.71,14.71,0,0,0-.92-2.79,86.05,86.05,0,0,0-9.69-17.42A60.81,60.81,0,0,0,269.12,26a52,52,0,0,0-22.21-7.31,63.05,63.05,0,0,0-22.07,1.92,47.55,47.55,0,0,0-18.26,9.23c-2.69,2.23-5.4,4.44-8.06,6.7a252.87,252.87,0,0,1-27,20.19c-9.64,6.21-19.68,11.74-29.89,17-8.16,4.19-16.5,8-24.85,11.77-2.09.94-4.21,1.83-6.33,2.69a9.18,9.18,0,0,1-6.72.07,4.87,4.87,0,0,1-2.6-7.45,7.27,7.27,0,0,1,3.38-3c2-.89,4-1.75,6-2.59,6.74-2.85,13.49-5.65,20-9.1a35.41,35.41,0,0,0,5.24-3.33,5,5,0,0,0,.9-.93.6.6,0,0,0-.13-.86,9.54,9.54,0,0,0-1.71-1,82.6,82.6,0,0,0-27.88-6.64,75.94,75.94,0,0,0-20.17,1.57A85.33,85.33,0,0,0,44,77.78,95.17,95.17,0,0,0,18.7,120.36a50.5,50.5,0,0,0-2,8.93,36.36,36.36,0,0,0,7.38,26.78A42.74,42.74,0,0,0,42,169.44a59.07,59.07,0,0,0,22.26,4.73,90.82,90.82,0,0,0,17.28-1,94.47,94.47,0,0,0,29.43-10.6c.66-.37,1.33-.75,2-1.06,1-.45,1.66-.07,1.79,1.1.24,2.17.47,4.34.6,6.52.31,5.12.53,10.24.84,15.36.21,3.48.5,7,.78,10.44.35,4.24.74,8.48,1.1,12.72.28,3.36.51,6.74.85,10.1.53,5.43,1.14,10.85,1.7,16.27.52,5,1,10,1.54,15,.8,6.82,1.66,13.64,2.54,20.46.57,4.43,1.21,8.86,1.87,13.28.26,1.72.58,2,2.35,2C132.2,284.83,135.48,284.78,138.75,284.78Z"/>
      <path class="cls-3"
            d="M1151.61,395.56c-5,1-10.1.71-15.16.72-2.44,0-4.87-.06-7.31-.11a8.65,8.65,0,0,1-3.55-.7c-1.46-.68-1.78-2.1-.59-3.18a18.64,18.64,0,0,0,3.36-3.9,26.41,26.41,0,0,0,4.29-13.76c.15-6.49.57-13,.84-19.44.23-5.27.22-10.55.52-15.8,1-17.94.42-35.89.5-53.84,0-3.36-.49-6.67-.63-10-.07-1.64-.6-2.05-2.3-2.22-.71-.07-1.43,0-2.13-.15a1.82,1.82,0,0,1-1.64-1.87,4.49,4.49,0,0,1,1.43-3.54c1.45-1.56,2.83-3.18,4.28-4.74,4.37-4.66,8.5-9.54,12.61-14.42.19-.23.41-.45.61-.68,1.38-1.57,3-2,4.87-.94v1.82a5.17,5.17,0,0,0-.52,2.35,40.65,40.65,0,0,1-.72,5.72c-.42,3.11-.82,6.22-1.12,9.34-.32,3.43-.33,6.89-.79,10.29-.61,4.54-.46,9.1-.93,13.64-.43,4.12-.35,8.28-.58,12.43-.42,7.48-.47,15-.6,22.47-.29,17.42-.1,34.85-.19,52.28a20.24,20.24,0,0,0,2.93,10.69c.88,1.48,1.68,3,2.52,4.5Z"/>
      <path class="cls-3"
            d="M741.77,120.49c0-2.13,0-4.26,0-6.39a5.91,5.91,0,0,0-2.34-5c-2.29-1.73-2.77-4.1-1.9-6.82a21,21,0,0,1,3.23-6.17,52.76,52.76,0,0,1,12.17-11.83,20.8,20.8,0,0,1,3.44-1.94c1.46-.65,2.39-.24,2.83,1.25a11.9,11.9,0,0,1,.66,5.69c-1.27,6.33-1,12.73-1,19.11,0,8.73.22,17.46-.07,26.18-.51,15.72-.22,31.45-.64,47.17-.17,6.49-.19,13-.49,19.46-.19,4.12,1.5,7.24,4.16,10.06.28.3.6.55.89.83a4.15,4.15,0,0,1,1.2,4.44,15.14,15.14,0,0,1-5.6,8.12,5.44,5.44,0,0,1-6.79-.1,26.94,26.94,0,0,1-7.69-9.69c-.12-.27-.21-.57-.32-.85-.8-2-1-2-2.28-.47a49.22,49.22,0,0,1-7.86,7.61,30.4,30.4,0,0,1-21.1,6.32c-5.37-.37-10.17-2.6-14.61-5.62-4.74-3.22-8.12-7.62-10.9-12.51a57,57,0,0,1-6.54-20.15,83.29,83.29,0,0,1-.47-16.4,59.2,59.2,0,0,1,2.17-12.57A86.24,86.24,0,0,1,688.63,142a42.29,42.29,0,0,1,12.55-14.68,25.26,25.26,0,0,1,17.11-5.17,30.19,30.19,0,0,1,10.57,2.69c2.66,1.24,5.22,2.69,7.83,4.05.9.46,1.78,1,2.71,1.37a1.27,1.27,0,0,0,1.87-1,13,13,0,0,0,.41-2.7c.06-2,0-4,0-6.08Zm-49.24,54.07c0,1.94-.11,3.77,0,5.58a41.6,41.6,0,0,0,4.09,16.11c3.65,7.1,9.64,11,17.24,12.76a7.73,7.73,0,0,0,3,0c9.62-1.67,16.9-6.54,21.16-15.52,3.83-8.1,4.6-16.75,4.49-25.52a44,44,0,0,0-1.92-11.37,28,28,0,0,0-6.31-11.67c-4.63-5-10.63-7.27-17.26-8.05a7.8,7.8,0,0,0-2.71.27,23.52,23.52,0,0,0-13.42,8.9,40.6,40.6,0,0,0-5.8,11A41.42,41.42,0,0,0,692.53,174.56Z"/>
      <path class="cls-3"
            d="M658,209.52c-1-.17-1.29.6-1.76,1.07a49.16,49.16,0,0,1-10.42,7.84,39.1,39.1,0,0,1-20.65,5.39A35.83,35.83,0,0,1,601.18,214a24.72,24.72,0,0,1-6-9.05A32,32,0,0,1,593,187.64a77.74,77.74,0,0,1,2.29-10.7,26,26,0,0,1,6.34-10.6A52.94,52.94,0,0,1,634,150.29a29.49,29.49,0,0,1,9.69.25c1,.2,2,.28,3.07.43a3.91,3.91,0,0,0-.2-1.09c-3.35-5.79-7.58-10.78-13.37-14.28a33.75,33.75,0,0,0-19.48-4.85,6.06,6.06,0,0,0-1.21.12c-5.58,1.29-6.51,5-5.58,9.37.45,2.13,3,3.63,5.5,3.46a8.39,8.39,0,0,0,5.1-1.72,8.14,8.14,0,0,1,1.79-1.12,1.61,1.61,0,0,1,2.07.77,2.92,2.92,0,0,1,.35,2.35,8.17,8.17,0,0,1-.94,2.23c-2.6,3.78-6,6.28-10.77,6.49-1,.05-2,0-3,0-7.6,0-12.73-6-13.16-12.92a19.28,19.28,0,0,1,15.86-20.1,34.15,34.15,0,0,1,13.88.24,61.49,61.49,0,0,1,26.1,12.49,44.7,44.7,0,0,1,9.88,11.06,54.55,54.55,0,0,1,4.33,9.38,152.08,152.08,0,0,1,8.26,28.92,87,87,0,0,1,1.66,13.57c0,2.33.3,4.65.56,7a18.2,18.2,0,0,0,2,6c.8,1.64,1.73,3.22,2.62,4.81a20.11,20.11,0,0,1,2.4,5.57A2.15,2.15,0,0,1,680,221.5a9.52,9.52,0,0,1-2,.68,32.23,32.23,0,0,1-12.37.77c-1.6-.25-3.23-.32-4.82-.64-2.51-.5-2.89-.94-3-3.42a44.71,44.71,0,0,1,.24-8.5A3.73,3.73,0,0,0,658,209.52Zm-21.47-44.7a45.47,45.47,0,0,0-13.74,2.27,9.88,9.88,0,0,0-2.45,1.18,23.28,23.28,0,0,0-11,17.37A16,16,0,0,0,612,197.2c3.18,4.51,7.74,6.73,13,7.7a31.91,31.91,0,0,0,13.26-.77c5.7-1.38,10.87-3.8,15-8.22a15.94,15.94,0,0,0,4.39-13.09,27,27,0,0,0-1.65-6.78,16.52,16.52,0,0,0-8-8.83A22.71,22.71,0,0,0,636.48,164.82Z"/>
      <path class="cls-3"
            d="M1008.47,214.9c0-1.32,0-2.64,0-4a1.07,1.07,0,0,0-.35-.78c-.4-.31-.75,0-1.06.28-1.54,1.31-3,2.71-4.63,3.95A43.92,43.92,0,0,1,985,222.84c-11.41,2.55-21.71.06-31-6.93-5.75-4.32-8.68-10.31-10.12-17.15a34,34,0,0,1-.09-12.71A84.49,84.49,0,0,1,946.21,176a22.57,22.57,0,0,1,5.51-9,52.47,52.47,0,0,1,30.84-16.39,35.68,35.68,0,0,1,12.11,0,15.85,15.85,0,0,0,1.81.18A.57.57,0,0,0,997,150a20.92,20.92,0,0,0-1.13-2.15A36.91,36.91,0,0,0,982.72,135a33.35,33.35,0,0,0-18.43-4.25,10.11,10.11,0,0,0-2.67.52,6.88,6.88,0,0,0-4.62,7.11,5.69,5.69,0,0,0,6.24,5.3,9.09,9.09,0,0,0,4.3-1.4c.59-.38,1.16-.82,1.78-1.16,1.46-.81,2.58-.28,3,1.34a4.25,4.25,0,0,1-.63,3.21c-2.33,3.83-5.56,6.44-10.15,6.94a27,27,0,0,1-5.16,0,13.05,13.05,0,0,1-11.81-12,19.29,19.29,0,0,1,1.29-9.54,18.83,18.83,0,0,1,12.38-10.87,29.87,29.87,0,0,1,12.65-.88,59.6,59.6,0,0,1,28,11.92,45.8,45.8,0,0,1,11.2,11.9,47.35,47.35,0,0,1,3.88,8.25,159.22,159.22,0,0,1,9.53,34.55,64.13,64.13,0,0,1,1,10.89,26,26,0,0,0,4,14.47c1.11,1.81,2,3.77,2.92,5.68a8.56,8.56,0,0,1,.57,1.73,2,2,0,0,1-1.31,2.68,25.73,25.73,0,0,1-8.31,1.72c-3.56.34-7.08-.32-10.6-.73a8.2,8.2,0,0,1-1.18-.31,2.35,2.35,0,0,1-2-2.38c0-1.63,0-3.25,0-4.87Zm-20.93-50.08a46.25,46.25,0,0,0-14.29,2.32,8.39,8.39,0,0,0-2.2,1c-6,4-10.06,9.35-11,16.7-.58,4.45-.17,8.72,2.61,12.47,3.18,4.3,7.63,6.52,12.74,7.6a28.59,28.59,0,0,0,8.76,0,33.77,33.77,0,0,0,16.84-6.44,17.1,17.1,0,0,0,7.11-11.27,20.33,20.33,0,0,0-1.2-10.15c-2.16-6.35-6.67-10.23-13.26-11.67A25.19,25.19,0,0,0,987.54,164.82Z"/>
      <path class="cls-3"
            d="M487.14,215c0-1.42,0-2.84,0-4.26,0-.3-.09-.67-.44-.7a1.27,1.27,0,0,0-.82.25c-1.41,1.16-2.77,2.38-4.19,3.53a43.72,43.72,0,0,1-23.81,9.89,34.91,34.91,0,0,1-16.08-2.56,39.87,39.87,0,0,1-11.11-6.79,17.94,17.94,0,0,1-3.33-3.93A31.06,31.06,0,0,1,422,193,61.78,61.78,0,0,1,424,178.3a27.52,27.52,0,0,1,8.5-13.79,54.36,54.36,0,0,1,20.86-12.15,41.19,41.19,0,0,1,19.79-1.76c.78.14,1.85.62,2.32,0,.67-.85-.38-1.65-.81-2.36-5.92-9.78-14.48-15.66-25.84-17.35a24.9,24.9,0,0,0-6.68-.09c-2.89.36-5.23,1.58-6.22,4.59a7.72,7.72,0,0,0-.31,3.3,5.47,5.47,0,0,0,6.41,5,8.88,8.88,0,0,0,4.24-1.55,16.13,16.13,0,0,1,2-1.3,1.54,1.54,0,0,1,2.22.92,4.45,4.45,0,0,1-.09,3.27,7.63,7.63,0,0,1-1.07,1.83,22.79,22.79,0,0,1-4.15,4,4.5,4.5,0,0,1-1.31.75c-6.05,2-11.79,1.8-16.88-2.51a11.27,11.27,0,0,1-3.16-4.77,16,16,0,0,1-.44-10.45c1.94-6.58,6.05-11.2,12.6-13.39A28.46,28.46,0,0,1,449,119.36a59,59,0,0,1,29.73,13,42.23,42.23,0,0,1,13.16,17.57A176.37,176.37,0,0,1,501,180.48a95.59,95.59,0,0,1,2.1,19,19.16,19.16,0,0,0,2.09,8.5c.93,1.91,2,3.76,3,5.62a18.25,18.25,0,0,1,1.94,4.44c.52,2.07.05,3-2,3.79a25,25,0,0,1-6.85,1.31c-3.76.41-7.48-.25-11.2-.73a8.54,8.54,0,0,1-1.17-.33,2.22,2.22,0,0,1-1.77-2.19c0-1.62,0-3.24,0-4.86Zm-21.09-50.2a38.45,38.45,0,0,0-9.13.91A21.55,21.55,0,0,0,450,168a24.32,24.32,0,0,0-8.05,7.71c-2.81,4.23-3.64,9-3.42,13.93a13.79,13.79,0,0,0,3.77,9.05c4.35,4.67,9.91,6.66,16.1,6.66a36.87,36.87,0,0,0,11.65-1.9,32.24,32.24,0,0,0,10.4-5.56,15.73,15.73,0,0,0,6-9.6,22.09,22.09,0,0,0-1.8-13.36,16.14,16.14,0,0,0-9.71-8.65A23,23,0,0,0,466.05,164.84Z"/>
      <path class="cls-3"
            d="M509.6,320.08a3,3,0,0,0-.18-.83c-5.17-9.33-12.7-15.7-23.19-18.25a30.59,30.59,0,0,0-8.74-1,11.18,11.18,0,0,0-4.42,1,5.64,5.64,0,0,0-3.44,5c0,.6,0,1.22,0,1.82-.22,3.14,3.14,5.73,6.09,5.33a9.68,9.68,0,0,0,4.51-1.68,14.74,14.74,0,0,1,1.75-1.21,1.68,1.68,0,0,1,2.47,1,3.79,3.79,0,0,1-.26,3.51,13.6,13.6,0,0,1-6.75,6.34,15.12,15.12,0,0,1-12.7-.15c-5-2.38-7.61-6.37-8-12-.59-9.21,6.33-18.34,16.72-20.06a38.67,38.67,0,0,1,16,1.09,60.13,60.13,0,0,1,22,10.83,46,46,0,0,1,11,11.72,42.79,42.79,0,0,1,3.64,7.68,155.7,155.7,0,0,1,10.21,37.81c.26,2.12.42,4.23.52,6.36.13,2.53.36,5.05.59,7.58a12.8,12.8,0,0,0,1.43,4.63c1.14,2.26,2.34,4.5,3.56,6.71a16.7,16.7,0,0,1,2,4.76,2.14,2.14,0,0,1-1.33,2.73,12,12,0,0,1-2.58.9,41.34,41.34,0,0,1-16.62,0l-.29-.07c-2.07-.54-2.55-1-2.64-3.12s0-4.26,0-6.39c0-1,.46-2,0-3-1.38-.15-1.84,1.09-2.61,1.79a45,45,0,0,1-18.83,10.8c-13.3,3.57-25.11.54-35.34-8.57a23,23,0,0,1-5.89-9.13,32.56,32.56,0,0,1-2.09-16.7,88.42,88.42,0,0,1,2.32-11,24.78,24.78,0,0,1,5.87-10.2,52.36,52.36,0,0,1,17.55-12.35,54.26,54.26,0,0,1,16.42-4.29,35.81,35.81,0,0,1,9.69.6C508.39,320.23,509,320.61,509.6,320.08Zm-9.94,14.06a49.88,49.88,0,0,0-14,2.42,10.14,10.14,0,0,0-2.73,1.32,24.56,24.56,0,0,0-8.9,10.53,24.18,24.18,0,0,0-1.83,7.36,15.82,15.82,0,0,0,3.75,12.15,18,18,0,0,0,6.89,4.88,22.79,22.79,0,0,0,13.09,1.61c.6-.12,1.21-.14,1.81-.23,6.24-.93,12-3.05,16.82-7.22a16.34,16.34,0,0,0,6-14.85,24.65,24.65,0,0,0-1.57-6.48,16.59,16.59,0,0,0-10.08-9.91A25.33,25.33,0,0,0,499.66,334.14Z"/>
      <path class="cls-3"
            d="M1097.39,390.58c0-1.22,0-2.44,0-3.66,0-.49.12-1.08-.39-1.37s-.93.21-1.27.55a46,46,0,0,1-5.31,4.55,43.21,43.21,0,0,1-19.4,8.29,35.43,35.43,0,0,1-22.92-4.13,54,54,0,0,1-5.83-3.86,21.24,21.24,0,0,1-5.52-6.41c-4.7-7.93-5.51-16.41-3.62-25.27.38-1.79.89-3.54,1.27-5.33a24.9,24.9,0,0,1,6.74-12.06,52.76,52.76,0,0,1,28.7-15.52,35.41,35.41,0,0,1,14.21-.2c.56.12,1.29.48,1.73-.05.57-.69-.11-1.32-.45-1.89-3.85-6.42-8.9-11.54-15.76-14.74a38.6,38.6,0,0,0-13.51-3.33,14.13,14.13,0,0,0-5.7.75,6.63,6.63,0,0,0-4.5,7.14,5.62,5.62,0,0,0,6,5.27,8.77,8.77,0,0,0,5.09-1.77,11.47,11.47,0,0,1,1.77-1.16,1.65,1.65,0,0,1,2.11.69,3.28,3.28,0,0,1,.34,2.92,8.8,8.8,0,0,1-1.84,3.12,15,15,0,0,1-9.35,5.21,14.71,14.71,0,0,1-12-3.22,12.77,12.77,0,0,1-4.6-9,19.25,19.25,0,0,1,4.66-14.66,18.17,18.17,0,0,1,9.45-5.77,28.33,28.33,0,0,1,11.13-.88c14.63,1.85,26.74,8.45,36.7,19.15a37.58,37.58,0,0,1,6.93,11.73,149.65,149.65,0,0,1,5.86,17,142.92,142.92,0,0,1,4.2,18.69,70.51,70.51,0,0,1,1,11.5,25,25,0,0,0,3.84,13.88c.89,1.48,1.73,3,2.49,4.53a13.72,13.72,0,0,1,1,2.86c.4,1.71,0,2.35-1.66,3.05a15.08,15.08,0,0,1-2.61.79,40.53,40.53,0,0,1-13.32.35c-1.31-.16-2.6-.42-3.89-.71a2.1,2.1,0,0,1-1.76-2.18c0-1.62,0-3.24,0-4.86Zm-21.19-50.35a51.85,51.85,0,0,0-14,2.42,11.12,11.12,0,0,0-3,1.48c-7.13,4.93-10.71,11.69-10.51,20.39a14.44,14.44,0,0,0,4.09,9.88,20.39,20.39,0,0,0,14.66,6.41,37.94,37.94,0,0,0,18.74-4.37,23.63,23.63,0,0,0,7.45-6.17,14.78,14.78,0,0,0,3.1-6.52c1.07-5.13-.14-9.87-2.46-14.38a15,15,0,0,0-6.87-6.64A26.51,26.51,0,0,0,1076.2,340.23Z"/>
      <path class="cls-3"
            d="M835,335a61.63,61.63,0,0,1-.82,11.82c-.7,4.68-2.54,9-4.4,13.25a81.7,81.7,0,0,1-7.24,13.36,58.07,58.07,0,0,1-13.09,13.9,35.5,35.5,0,0,1-19,7.52,23.55,23.55,0,0,1-14.25-3.49c-1.47-.91-2.86-1.94-4.3-2.88a.82.82,0,0,0-1.38.52c-.1.4-.15.8-.21,1.2a90.34,90.34,0,0,0-1.06,18.8,25,25,0,0,0,.5,3.31,4.55,4.55,0,0,0,2.39,3.67c1.82.89,1.64,3.19.35,4.37-.15.14-.31.27-.46.39a106.59,106.59,0,0,1-15,10.43,28.44,28.44,0,0,1-3.32,1.52c-.73.28-1.57.68-2.31.07s-.42-1.48-.23-2.26c.12-.49.28-1,.43-1.46,1-3.3,2-6.6,3.05-9.89a22,22,0,0,0,1.06-6.88c0-4.06-.16-8.13.12-12.18.55-8,.22-16,.63-24,.86-16.44.39-32.87.42-49.3-.61-4.63-.35-9.32-1-14a4.53,4.53,0,0,0-1.93-3.25c-2.89-2.12-4.41-5.24-5.81-8.41a3.3,3.3,0,0,1,.16-2.95,11.39,11.39,0,0,1,6.7-5.4,6,6,0,0,1,4.45.48,17.39,17.39,0,0,1,4.77,3.23,40.23,40.23,0,0,1,5.76,6.66c.82,1.22,1.21,2.83,2.79,3.45,1.52-.54,2.32-1.92,3.37-3a63.11,63.11,0,0,1,6.56-5.89,29.68,29.68,0,0,1,18.68-6.29,27.09,27.09,0,0,1,4.83.56,39.82,39.82,0,0,1,16.12,6.84,24.12,24.12,0,0,1,6.59,7.88,51.57,51.57,0,0,1,5.42,17A63.24,63.24,0,0,1,835,335Zm-63.89,12.19c0,7.09-.07,14.18.53,21.26.58,6.85,3.88,11.46,10.42,13.45a20.75,20.75,0,0,0,18.55-2.93,42.85,42.85,0,0,0,11.53-12,67.61,67.61,0,0,0,11-30.59A35.31,35.31,0,0,0,820.11,318a14.06,14.06,0,0,0-2.23-3.61c-6.57-7.24-14.53-10.12-24.12-7.41a35.9,35.9,0,0,0-12.16,6.11,25.78,25.78,0,0,0-10.45,20.7C771,338.22,771.13,342.69,771.13,347.15Z"/>
      <path class="cls-3"
            d="M418.6,164.61a76.16,76.16,0,0,1-.84,12.43,55.55,55.55,0,0,1-4.6,13.49A75.28,75.28,0,0,1,402.68,208c-3.82,4.52-8,8.66-13.17,11.61a34.63,34.63,0,0,1-15.79,5,25.47,25.47,0,0,1-16.27-5c-2.82-2-3.34-1.85-3.66,1.63a136.89,136.89,0,0,0-1.07,15.15,32,32,0,0,0,.82,6,5.37,5.37,0,0,0,2.28,3.44c2.06,1.43,2.08,3,0,4.65-3.11,2.45-6.33,4.74-9.54,7.06a40.75,40.75,0,0,1-7.64,4.38,12.66,12.66,0,0,1-2.29.79,1.25,1.25,0,0,1-1.64-1.52,15.71,15.71,0,0,1,.46-1.76c1.07-3.6,2.11-7.21,3.23-10.79a18.14,18.14,0,0,0,.89-5.37c.07-9.64.38-19.27.74-28.89s.24-19.27.53-28.89c.13-4.36.66-8.72.37-13.07-.45-6.79-.28-13.59-.6-20.37-.13-2.63-.48-5.25-.54-7.89a6.11,6.11,0,0,0-2.43-5c-2.65-2.14-4.22-5.15-5.56-8.24a3.1,3.1,0,0,1,.1-2.66,10.82,10.82,0,0,1,7.68-5.89,5.11,5.11,0,0,1,3,.48,17.83,17.83,0,0,1,5.83,3.79,40.75,40.75,0,0,1,6.1,7.56c1.81,2.72,2,2.76,4.19.46a55.1,55.1,0,0,1,9.84-8.58,29.14,29.14,0,0,1,15.78-4.75c7.4-.08,13.91,2.49,20.11,6.1,3.89,2.26,6.44,5.81,8.52,9.72a51,51,0,0,1,4.94,15.28A72.51,72.51,0,0,1,418.6,164.61Zm-64,12.75v.3c-.25,6.6.57,13.16.62,19.76a17.29,17.29,0,0,0,1.47,6.8c1.86,4.24,5.37,6.51,9.63,7.74a20.51,20.51,0,0,0,14.52-1.27c5.16-2.33,8.93-6.26,12.47-10.47a54.42,54.42,0,0,0,7.77-13c3.71-8.33,6.13-16.94,5.79-26.2a35.86,35.86,0,0,0-3.13-13.23,14.28,14.28,0,0,0-3.69-5.16,35.9,35.9,0,0,0-5.11-3.81,20.42,20.42,0,0,0-15.2-2.61,43.27,43.27,0,0,0-10.43,4.12,28.34,28.34,0,0,0-9.43,8,21.11,21.11,0,0,0-4.72,12.32C355,166.21,354.29,171.77,354.62,177.36Z"/>
      <path class="cls-3"
            d="M704.53,385.18a46.82,46.82,0,0,0,12.88-1.32,16.73,16.73,0,0,0,10.78-7.32,21.83,21.83,0,0,0,3.22-18,12.21,12.21,0,0,0-6.34-8.16,44.91,44.91,0,0,0-8.41-3.52c-4.77-1.4-9.55-2.75-14.3-4.21a42.94,42.94,0,0,1-11.65-5.16c-6.19-4.17-9.72-9.75-10-17.45-.3-9.76,3.76-17.2,11.23-23.1,8-6.3,17.2-8.63,27.11-7.85a25.36,25.36,0,0,1,17.06,7.8,17.31,17.31,0,0,1,4.12,7.36,18.68,18.68,0,0,1,.18,9.62,11.26,11.26,0,0,1-5.69,7.56,17.89,17.89,0,0,1-15.26,1.3,13.82,13.82,0,0,1-7.34-6.1,11.33,11.33,0,0,1-.38-10.81,5.26,5.26,0,0,1,.65-1c1.18-1.53,3-1.57,3.8.38a14.36,14.36,0,0,0,.62,1.39,5.65,5.65,0,0,0,6.64,3.05,3.66,3.66,0,0,0,3-3.34,6.21,6.21,0,0,0-3.22-6.08,12.48,12.48,0,0,0-3.73-1.27c-8.89-1-16.71,1.16-22.86,8a11,11,0,0,0-3.08,7.72c0,.81,0,1.62,0,2.44,0,3.84,2,6.51,5.11,8.42a18.35,18.35,0,0,0,3.32,1.48,76.22,76.22,0,0,0,9.37,2.64c3.56.82,7.12,1.62,10.65,2.54a48.93,48.93,0,0,1,13.41,5.67c6.38,4,10.43,9.46,11.78,16.93a36,36,0,0,1-4.22,25,31.58,31.58,0,0,1-9,9.41,38.34,38.34,0,0,1-15.53,6.68,50,50,0,0,1-18.44.45,37.88,37.88,0,0,1-13.41-4.74c-6.39-3.87-10-9.62-11.39-16.86a18,18,0,0,1,3.12-14.44,18.3,18.3,0,0,1,15-8,21.56,21.56,0,0,1,7.24.75c4.67,1.48,8,4.31,9.16,9.25a16.28,16.28,0,0,1-1,10.43,10.29,10.29,0,0,1-9.67,5.7c-1.27-.11-1.75-.88-1.26-2.11.33-.85.74-1.67,1.09-2.51a11.44,11.44,0,0,0,.65-6.28,7.18,7.18,0,0,0-7.08-6,6.79,6.79,0,0,0-7.15,5.38,16.47,16.47,0,0,0,.26,8.13,12.5,12.5,0,0,0,6.66,7.92,20.48,20.48,0,0,0,8.16,2.21C702,385.24,703.53,385.18,704.53,385.18Z"/>
      <path class="cls-3"
            d="M633.71,379.71A45.58,45.58,0,0,0,655,375.16c5.84-2.7,10.71-6.57,13.71-12.45a5.35,5.35,0,0,1,.86-1.25,1.52,1.52,0,0,1,2.63.65,7.82,7.82,0,0,1,.26,1.8,12.34,12.34,0,0,1-1.74,6.38,26.39,26.39,0,0,1-5.19,6.72,49.58,49.58,0,0,1-12.38,8.75,38.1,38.1,0,0,1-14.31,3.83c-1.82.1-3.63.49-5.45.47a70.76,70.76,0,0,1-21.86-3.3c-1.53-.53-3-1.26-4.49-1.88-1.11-.46-1.64-.21-2.16.9a7,7,0,0,0-.36,4.77,31.71,31.71,0,0,0,1.79,5.8c1.82,3.83.51,6.86-2,9.73a9,9,0,0,1-2.79,2.32,3.6,3.6,0,0,1-4.72-.69,15.63,15.63,0,0,1-4.1-7,26.25,26.25,0,0,1-.57-9.67,17.25,17.25,0,0,1,2.63-8,8.81,8.81,0,0,0,1.43-4,6.09,6.09,0,0,0-1.07-4.26c-4.47-6.92-8.45-14.08-10.28-22.25a67.18,67.18,0,0,1-1.53-12.65,60,60,0,0,1,5.19-26c2.15-5,4.75-9.68,8.81-13.38a45.32,45.32,0,0,1,21-11.12,31.82,31.82,0,0,1,11.48-.6c2.8.41,5.66.35,8.47.8a78.18,78.18,0,0,1,24,7.44c3.93,2,4,2.2,1.59,5.79C660.4,308,656.53,313,652.78,318q-14.7,19.77-30.07,39c-2.85,3.57-5.78,7.07-8.66,10.61-1.47,1.81-1.46,2.28-.2,4.3a14.24,14.24,0,0,0,6.55,5.26,26.39,26.39,0,0,0,10.6,2.45C632,379.73,633,379.71,633.71,379.71Zm-36.59-41c.07.7.26,2,.33,3.32a45.69,45.69,0,0,0,5.28,18.26,15.7,15.7,0,0,0,1.31,2,1.06,1.06,0,0,0,1.8,0c1.26-1.46,2.5-2.93,3.7-4.43q6.87-8.53,13.69-17.08,6.62-8.32,13.16-16.72a23.45,23.45,0,0,0,4.45-9.89,11.72,11.72,0,0,0-2.61-9.93,4.67,4.67,0,0,0-1.34-1.21,20.67,20.67,0,0,0-10.75-2.85,21.72,21.72,0,0,0-10.6,3.39,40.19,40.19,0,0,0-12.73,13.28C598.84,323.32,597.32,330.54,597.12,338.67Z"/>
      <path class="cls-3"
            d="M810.49,225.13a63.78,63.78,0,0,1-21.22-3.37c-1.24-.44-2.43-1-3.66-1.5s-2.08-.22-2.59,1.15a7.8,7.8,0,0,0-.22,4.2,30.5,30.5,0,0,0,.92,3.53c.31,1.07.71,2.12,1.06,3.17,1.32,4,1.13,3.81-1,7.36a10.17,10.17,0,0,1-4.61,4.28,3.06,3.06,0,0,1-3.62-.63,16.09,16.09,0,0,1-5.07-10.12,29.17,29.17,0,0,1,.06-7.29,17.91,17.91,0,0,1,2.18-6.91,17.54,17.54,0,0,0,1.57-3.61,5.9,5.9,0,0,0-.88-5.43c-4.5-6.78-8.33-13.91-10.18-22a66.48,66.48,0,0,1-1.5-10.52,59.16,59.16,0,0,1,3.65-24.77,48.86,48.86,0,0,1,8.19-14.83,38.41,38.41,0,0,1,9.9-8,49.47,49.47,0,0,1,8.52-4,32.91,32.91,0,0,1,11-2,88.65,88.65,0,0,1,30.15,5,60.7,60.7,0,0,1,8.56,3.92,8.7,8.7,0,0,1,1.72,1.23,1.16,1.16,0,0,1,.3,1.4,16.18,16.18,0,0,1-1.35,2.36c-4.16,5.75-8.32,11.51-12.55,17.2q-16,21.5-32.8,42.32c-1.52,1.89-3.14,3.71-4.69,5.58-1.38,1.66-1.44,2.58-.18,4.34a13.83,13.83,0,0,0,4.19,3.94,26.54,26.54,0,0,0,10,3.48,47.62,47.62,0,0,0,29.37-5.54c4.75-2.52,8.72-5.91,11.12-10.87a8.44,8.44,0,0,1,.61-1,2.07,2.07,0,0,1,2-1.14c.68.09,1.19.8,1.32,1.85a10,10,0,0,1-.33,4.21,19.33,19.33,0,0,1-2.82,5.7,44.54,44.54,0,0,1-11.87,10.78c-6.82,4.5-14.44,6.24-22.49,6.51C812.32,225.16,811.4,225.13,810.49,225.13Zm-5.34-89.56a17.48,17.48,0,0,0-4.25.34,24.71,24.71,0,0,0-10.42,5.45,67.76,67.76,0,0,0-5.18,5.13c-7,7.81-9.7,17.2-9.8,27.43a43.3,43.3,0,0,0,1.17,9.64,46.29,46.29,0,0,0,5.52,13.78c.61,1,1.11,1.07,1.91.28.29-.29.56-.59.82-.9,3.78-4.64,7.6-9.24,11.33-13.92q9-11.3,17.91-22.68a25.28,25.28,0,0,0,5.08-10.92,11.54,11.54,0,0,0-1.26-7.64,8.57,8.57,0,0,0-4.58-4.24A20,20,0,0,0,805.15,135.57Z"/>
      <path class="cls-3"
            d="M879.5,292.56A80.31,80.31,0,0,1,906.89,297c2.69.9,5.26,2.14,7.87,3.25a17,17,0,0,1,1.89,1c2.59,1.51,2.76,2.05,1.13,4.49-1.81,2.7-3.65,5.37-5.6,8-7.92,10.55-15.8,21.11-23.85,31.56-6.25,8.11-12.71,16.05-19.1,24.06-.76,1-1.61,1.83-2.4,2.75a2.05,2.05,0,0,0-.27,2.53,12.73,12.73,0,0,0,3.92,4.58,24.21,24.21,0,0,0,11.94,4.12,52.85,52.85,0,0,0,26.7-4.52,22.41,22.41,0,0,0,7.32-4.82,7.74,7.74,0,0,1,.89-.83,2,2,0,0,1,2.54-.11,2.11,2.11,0,0,1,1.06,2.33,13.77,13.77,0,0,1-2,4.73,23.28,23.28,0,0,1-6.83,6.4,43.31,43.31,0,0,1-18.7,6.8A68.45,68.45,0,0,1,866,391c-1.85-.52-3.6-1.37-5.4-2.05-1.44-.54-2-.25-2.56,1.17a7,7,0,0,0-.16,4.48,37.91,37.91,0,0,0,1.81,5.8c1.59,3.46.6,6.29-1.63,9a10,10,0,0,1-4,3.17,3.16,3.16,0,0,1-3.64-.69,16.2,16.2,0,0,1-4.33-7.23,25.91,25.91,0,0,1,.13-13.54,24.25,24.25,0,0,1,2-4.41,10.36,10.36,0,0,0,1.34-4,6.43,6.43,0,0,0-1.08-4c-3.33-5.32-6.59-10.7-8.64-16.71a59.41,59.41,0,0,1-3.22-19.4,58.69,58.69,0,0,1,3.61-20.86c2.09-5.51,4.57-10.83,8.47-15.39a40.11,40.11,0,0,1,8.11-6.83,47.92,47.92,0,0,1,10.06-5A29.69,29.69,0,0,1,879.5,292.56Zm-28.72,49.13a43.17,43.17,0,0,0,5.06,21.82,20.14,20.14,0,0,0,1.63,2.56,1,1,0,0,0,1.6.08,8.63,8.63,0,0,0,.84-.87c3-3.6,6-7.18,8.85-10.82q10.23-12.84,20.37-25.74a25.76,25.76,0,0,0,5.17-11.22c.78-4.15-1.18-8.9-4.57-10.83a19.37,19.37,0,0,0-15.87-1.6,24.08,24.08,0,0,0-8.38,4.83,51.05,51.05,0,0,0-5.74,5.84,35.18,35.18,0,0,0-5.91,9.51A37.78,37.78,0,0,0,850.78,341.69Z"/>
      <path class="cls-3"
            d="M589.66,164.59a101.48,101.48,0,0,1-5.31,33.19c-.65,1.92-1.49,3.78-2.18,5.69-.93,2.57-.14,3.5,2.47,3,1-.19,2-.51,3-.68a17.8,17.8,0,0,1,2.72-.21,1.66,1.66,0,0,1,1.74,1.41,26.85,26.85,0,0,1,.5,3.3c.2,3.24,0,6.5.36,9.74.16,1.6-.64,2.39-2.3,2.58a7.54,7.54,0,0,1-3-.28c-1.94-.56-3.91-1.08-5.82-1.77a8.11,8.11,0,0,0-5.06-.2c-2.05.55-4.15.95-6.23,1.42a13.43,13.43,0,0,1-4.24.23,7.56,7.56,0,0,1-4.84-2.31,3.67,3.67,0,0,1-.86-3.94,6.25,6.25,0,0,1,1.37-2.35,18.75,18.75,0,0,1,2.83-2.74,8.73,8.73,0,0,0,3.18-4.32c3.77-9.54,7.13-19.22,9-29.34.6-3.29,1-6.62,1.44-9.94.29-2.44-.3-4.85-.56-7.26a35.35,35.35,0,0,0-3-10.49,25.52,25.52,0,0,0-2.63-4.45,15.15,15.15,0,0,0-16-5.53,25.25,25.25,0,0,0-11.8,7.75,41.84,41.84,0,0,0-9.66,18.41,20.35,20.35,0,0,0-.57,4.52l0,5.48c0,2.64-.16,5.27-.32,7.9a72.84,72.84,0,0,0,.18,13.37c.29,2.42.36,4.85.81,7.25.8,4.23,1.92,8.31,4.6,11.8a10.66,10.66,0,0,1,1.79,3.5c.56,1.94.1,2.86-1.78,3.52a16.32,16.32,0,0,1-2,.55,51.88,51.88,0,0,1-19.36.38c-.3-.05-.59-.12-.89-.2-2.89-.77-3.54-1.69-3-4.57a13.87,13.87,0,0,1,1-3.2c1-2.33,2.06-4.64,3.19-6.91a13,13,0,0,0,1.3-5.25c.58-11.86.43-23.73.75-35.59.16-6.09.31-12.17.38-18.25a56.06,56.06,0,0,0-.75-8.79,18.5,18.5,0,0,0-4.8-10.32c-2.15-2.26-1.74-4.3,1-6A22.46,22.46,0,0,1,522.5,122a3.89,3.89,0,0,1,4.84,2,46.43,46.43,0,0,1,4.19,8.77c.66,2,1.23,4.08,1.87,6.11.26.8.79.9,1.32.25a69.81,69.81,0,0,1,6.75-7,48.52,48.52,0,0,1,9.88-7c5.92-3.27,12.11-3.72,18.58-2.08a19.1,19.1,0,0,1,11.6,7.79,32.91,32.91,0,0,1,3.68,6.64,66.89,66.89,0,0,1,3.89,15.92A100.48,100.48,0,0,1,589.66,164.59Z"/>
      <path class="cls-3"
            d="M971,295.63a29.36,29.36,0,0,1,12,1.76c7.34,2.51,11.44,7.71,12.91,15.18a23.36,23.36,0,0,1-3.33,17.23c-2.93,4.75-7.31,7.52-13.14,7.42-.41,0-.82,0-1.22,0-5.5.29-9.52-2.34-12.71-6.51a20.67,20.67,0,0,1-3.94-9.77,18.47,18.47,0,0,1,.18-7.55,9.78,9.78,0,0,1,1.35-3.37,5.05,5.05,0,0,1,4.64-2.39,2.37,2.37,0,0,1,2.43,2.26,12.39,12.39,0,0,1-.25,3.93,9.45,9.45,0,0,0,4.73,9.75,5.18,5.18,0,0,0,2,.66,10.31,10.31,0,0,0,5.91-1c5.83-3,6.08-9.81,2-13.81a16.48,16.48,0,0,0-11.73-5.06,42.94,42.94,0,0,0-21.49,5.85c-3.69,2.11-6.39,5.32-8.72,8.8A52.15,52.15,0,0,0,935.41,334a41.87,41.87,0,0,0-.11,23.43,32.75,32.75,0,0,0,17.12,20.75,42.69,42.69,0,0,0,13.32,4c9.67,1.46,18.26-1.37,26.43-6.11a42.24,42.24,0,0,0,8.26-6.21,11.09,11.09,0,0,1,1.67-1.29c.39-.27,1,.09,1.21.56a2.92,2.92,0,0,1,.06,1.8,17,17,0,0,1-1.74,4.53,45.71,45.71,0,0,1-31.06,21,39.56,39.56,0,0,1-19.81-1.65,53.88,53.88,0,0,1-15.37-8.49,41.73,41.73,0,0,1-10.31-12.66,47.16,47.16,0,0,1-5.57-22.21,49.3,49.3,0,0,1,2.55-17.07,83.56,83.56,0,0,1,7.27-15.72,46.59,46.59,0,0,1,29.93-21.76A38.26,38.26,0,0,1,971,295.63Z"/>
      <path class="cls-3"
            d="M869.73,180.75c0,3.65-.14,7.31,0,10.95a114.48,114.48,0,0,0,2.5,21.11A37.81,37.81,0,0,0,874,218.3a15,15,0,0,0,3.1,4.83,1.28,1.28,0,0,1-.68,2.29,10.85,10.85,0,0,1-2.41.26q-11.26,0-22.52,0a12.38,12.38,0,0,1-2.71-.31,2.08,2.08,0,0,1-1.73-2.19,5.75,5.75,0,0,1,1.52-4.18c.74-.84,1.52-1.64,2.32-2.41a9.44,9.44,0,0,0,3.09-6.08c.3-3.13.72-6.24,1.06-9.36.55-5,.32-9.94.72-14.88a119.46,119.46,0,0,0,.29-14.89c-.34-7-.35-14-.58-21a17.15,17.15,0,0,0-3.43-10.22,15,15,0,0,1-2.72-5.06,7.55,7.55,0,0,1,2.4-8.26,6.21,6.21,0,0,1,7.06-1.11,9,9,0,0,1,3.9,3.29c.75,1.09,1.39,2.24,2.14,3.33.57.83,1.2,1.63,1.85,2.4a1.25,1.25,0,0,0,1.66.29,26.4,26.4,0,0,0,2.27-1.52c2.65-1.88,5.24-3.83,7.94-5.63a30.42,30.42,0,0,1,18.72-5.23,14.6,14.6,0,0,1,8.23,2.79c3.52,2.59,5,6.28,5.51,10.45a10.9,10.9,0,0,1-3.23,9.42,23,23,0,0,1-13.51,7,10,10,0,0,1-4.79-.49c-1.64-.57-2-2-.89-3.37a10.39,10.39,0,0,1,2.81-2.3c1-.63,2.11-1.24,3.08-2a7.84,7.84,0,0,0,3-4.78c.55-2.58-.29-3.89-2.89-4.34a16.93,16.93,0,0,0-7.26.15,24.94,24.94,0,0,0-15.66,12.17,7.59,7.59,0,0,0-.81,3.21c-.35,4.14-.41,8.31-.77,12.43C869.65,169,869.84,174.87,869.73,180.75Z"/>
      <path class="cls-3"
            d="M433,304.62c0-6.08.08-12.17,0-18.25-.08-4.56-.36-9.11-.61-13.66-.1-1.83-.59-2.26-2.43-2.41-.7-.06-1.42,0-2.12-.11a2,2,0,0,1-1.79-2.61,5.64,5.64,0,0,1,1.48-2.61c1.23-1.35,2.43-2.73,3.66-4.07,4.55-4.91,8.9-10,13.21-15.1a14.76,14.76,0,0,1,2-1.88,2.54,2.54,0,0,1,2-.5,1.73,1.73,0,0,1,1.6,1.87c-.11,1.21-.31,2.41-.51,3.61-1.19,7.1-1.92,14.25-2.42,21.43-.48,6.88-.86,13.75-1.29,20.63-.33,5.37-.29,10.74-.54,16.1-1,22.4-.33,44.81-.61,67.21a19.72,19.72,0,0,0,3.25,11.5,17.63,17.63,0,0,1,2.31,4.61c.45,1.45.1,2.07-1.36,2.45a5.68,5.68,0,0,1-1.19.23c-3.85.1-7.68.48-11.54.32-2.93-.13-5.88-.14-8.82-.21a7.59,7.59,0,0,1-3.26-.6c-1.5-.73-1.8-1.92-.77-3.19a7.75,7.75,0,0,1,.85-.87c3.14-2.82,4.79-6.5,5.9-10.45a29.68,29.68,0,0,0,1.18-8.11c0-7.3.56-14.58.87-21.87.26-6.28.08-12.58.57-18.83C433.21,321,432.81,312.83,433,304.62Z"/>
      <path class="cls-3"
            d="M1014.25,397.44c-2.43,0-4.87,0-7.3,0-2.74,0-4.27-1.37-2.4-4.26.72-1.1,1.36-2.26,2.06-3.37a48.32,48.32,0,0,0,3.7-8,12,12,0,0,0,.59-4.49l.09-21c0-1.93.11-3.84.27-5.77a33.91,33.91,0,0,0,.08-6.37c-.45-4.25-.27-8.51-.46-12.76-.15-3.24-.43-6.47-.65-9.7a2.18,2.18,0,0,0-2-2.31,2.47,2.47,0,0,1-.29-.06c-.78-.18-1.76-.15-2-1.08-.34-1.17.54-1.85,1.34-2.49a47.84,47.84,0,0,0,13.41-17.07,6.71,6.71,0,0,1,1.44-2.31,1.15,1.15,0,0,1,1.93.55,4.51,4.51,0,0,1,.21,1.19c0,2.54.06,5.08-.14,7.6-.15,1.92-.32,3.84-.31,5.77,0,7.4-.55,14.78-.86,22.17-.3,6.79-.49,13.58-.31,20.36.23,8.61.73,17.21,2.85,25.63,1.09,4.34,2.35,8.6,4.83,12.4a5.86,5.86,0,0,1,.63,1.37,1.72,1.72,0,0,1-.85,2.08,9.63,9.63,0,0,1-2.27.82,37.44,37.44,0,0,1-7.52,1.06c-2,0-4.05,0-6.08,0Z"/>
      <path class="cls-3"
            d="M924.55,226.25c-2.2,0-4.24.12-6.26,0-3.55-.26-4.31-1.78-2.39-4.73a78.24,78.24,0,0,0,4.71-8.86,14.23,14.23,0,0,0,1.42-6.47c-.07-4.36,0-8.72,0-13.08,0-4.87.28-9.74.37-14.6.12-7.29-.3-14.59-.55-21.89-.07-2.12-.35-4.24-.55-6.36-.17-1.75-.46-2-2.18-2.35-.4-.08-.81-.06-1.21-.15a1.16,1.16,0,0,1-.7-1.89,8.1,8.1,0,0,1,1.44-1.54A46.93,46.93,0,0,0,931.6,128c.46-.9.95-1.78,1.47-2.65a1.09,1.09,0,0,1,1.06-.48,1.18,1.18,0,0,1,1,1,4.39,4.39,0,0,1,.22,1.19,70,70,0,0,1-.18,8.81,15.4,15.4,0,0,0-.22,2.12c.12,7-.52,14-.79,21-.31,8.11-.76,16.22-.45,24.33.3,7.7.73,15.4,2.38,23a46.63,46.63,0,0,0,4,12.4c.53,1,1.16,1.91,1.7,2.88.77,1.38.49,2.26-1,3a13.26,13.26,0,0,1-4.69,1.2C932.27,226,928.35,226.65,924.55,226.25Z"/>
      <path class="cls-3"
            d="M1015.66,265.74a11.14,11.14,0,0,1,11.24,11.37c-.17,5.21-3.86,11.25-11.54,11.21-5.75,0-11.29-5.12-11.15-11.36C1004.35,270.26,1009.79,265.4,1015.66,265.74Z"/>
      <path class="cls-3"
            d="M943.61,94.71a16.13,16.13,0,0,1,6,.89c1.6.57,2,1.66,1.17,3.1a24.69,24.69,0,0,1-2.69,3.67c-2.85,3.16-5.72,6.3-8.71,9.33A58.71,58.71,0,0,1,934.3,116a5.52,5.52,0,0,1-3.95,1.3,4.8,4.8,0,0,1-2-.58,2.48,2.48,0,0,1-1.27-2.83,6.8,6.8,0,0,1,.8-2q4-6.45,8.1-12.87c.1-.17.23-.33.34-.5C938,95.72,940.55,94.35,943.61,94.71Z"/>
    </g>
  </g>
</svg>
