<svg xmlns="http://www.w3.org/2000/svg" viewBox="0 0 100 100"><defs><style>.cls-1{fill:#686868;}</style></defs><title>Pan-dulce</title><g id="Layer_2" data-name="Layer 2"><g id="Layer_1-2" data-name="Layer 1"><path class="cls-1" d="M50,0A50,50,0,0,0,5.56,27.07a5.41,5.41,0,0,0,2.77.71c3.49,0,5.34-2.67,8.06-7s6-9.64,12.76-9.64,10.1,5.35,12.78,9.64,4.57,7,8.06,7,5.34-2.67,8.07-7,6-9.64,12.76-9.64,10.1,5.35,12.78,9.64,4.57,7,8.07,7a5.41,5.41,0,0,0,2.77-.71A50,50,0,0,0,50,0ZM96.72,32.15a10.88,10.88,0,0,1-5,1.18c-6.75,0-10.1-5.34-12.78-9.64s-4.57-7-8.07-7-5.33,2.66-8.06,7-6,9.64-12.77,9.64S39.9,28,37.22,23.69s-4.57-7-8.07-7-5.33,2.66-8,7-6,9.64-12.77,9.64a10.88,10.88,0,0,1-5.05-1.18,50,50,0,1,0,93.44,0ZM50,68.06a12.5,12.5,0,1,1,12.5-12.5A12.5,12.5,0,0,1,50,68.06Z"/></g></g></svg>