<svg xmlns="http://www.w3.org/2000/svg" viewBox="0 0 133.53 100"><defs><style>.cls-1{fill:#686868;}</style></defs><title>Pan-sal</title><g id="Layer_2" data-name="Layer 2"><g id="Layer_1-2" data-name="Layer 1"><path id="Bread" class="cls-1" d="M131.29,79.46a27.89,27.89,0,0,0-1.84-2.24,97.75,97.75,0,0,0-29.71-22.3V67.08a6.59,6.59,0,0,1-13.17,0V49.94a76.65,76.65,0,0,0-13.22-2.17V67.08a6.59,6.59,0,0,1-13.17,0V47.77A76.23,76.23,0,0,0,47,49.93V67.08a6.59,6.59,0,0,1-13.17,0V54.89A97.81,97.81,0,0,0,4.08,77.22a27.89,27.89,0,0,0-1.84,2.24A12.81,12.81,0,0,0,0,86.83,13.21,13.21,0,0,0,13.17,100H120.36a13.21,13.21,0,0,0,13.17-13.17A12.81,12.81,0,0,0,131.29,79.46Z"/><circle class="cls-1" cx="66.86" cy="29.17" r="4.17"/><circle class="cls-1" cx="58.53" cy="16.67" r="4.17"/><circle class="cls-1" cx="66.86" cy="4.17" r="4.17"/></g></g></svg>