<svg xmlns="http://www.w3.org/2000/svg" viewBox="0 0 89.99 100"><defs><style>.cls-1{fill:#686868;}</style></defs><title>Reposteria</title><g id="Layer_2" data-name="Layer 2"><g id="Layer_1-2" data-name="Layer 1"><path class="cls-1" d="M45,57.46c-7.82,0-14.9-3.73-18.06-9.52l-2.57-4.72-4.93,2.14a16,16,0,0,1-6.4,1.31c-4.54,0-7.95-1.13-10.14-3.35C.51,40.86,0,37.43,0,35,0,20.68,16,0,45,0S90,20.6,90,34.84c0,2.48-.51,6-3,8.46-2.18,2.23-5.56,3.37-10,3.37a15.9,15.9,0,0,1-6.4-1.31l-4.94-2.14-2.57,4.72C59.94,53.73,52.85,57.46,45,57.46Z"/><path class="cls-1" d="M77,52.36a22.13,22.13,0,0,1-8.75-1.79C64.21,58,55.35,63.16,45,63.16S25.86,58,21.82,50.57a22.08,22.08,0,0,1-8.74,1.79,22.86,22.86,0,0,1-10-2,1.46,1.46,0,0,0-2,1.88L18.76,96.3a5.87,5.87,0,0,0,5.46,3.7H65.85a5.87,5.87,0,0,0,5.46-3.7L89,52.15a1.46,1.46,0,0,0-2-1.87A22.42,22.42,0,0,1,77,52.36Z"/></g></g></svg>