<svg xmlns="http://www.w3.org/2000/svg" viewBox="0 0 100 34.83">
  <title>Tray-Full</title>
  <g id="Layer_2">
    <g id="Full_Tray">
      <polygon id="Tray" points="0 24.83 100 24.83 89.37 34.83 10.59 34.83 0 24.83"/>
      <path id="Bread"
            d="M74.48,12a10.47,10.47,0,0,0-.7-.85A37,37,0,0,0,62.5,2.71V7.33a2.5,2.5,0,0,1-5,0V.82a29.39,29.39,0,0,0-5-.82V7.33a2.5,2.5,0,0,1-5,0V0a29.32,29.32,0,0,0-5,.82V7.33a2.5,2.5,0,0,1-5,0V2.71a37.12,37.12,0,0,0-11.3,8.47,10.47,10.47,0,0,0-.7.85,4.88,4.88,0,0,0-.85,2.8,5,5,0,0,0,5,5h40.7a5,5,0,0,0,5-5A4.88,4.88,0,0,0,74.48,12Z"/>
    </g>
  </g>
</svg>
