<svg xmlns="http://www.w3.org/2000/svg" viewBox="0 0 100 44.83">
  <title>Tray-Empty</title>
  <g id="Layer_2">
    <g id="Empty_Tray">
      <polygon id="Tray" points="0 34.83 100 34.83 89.37 44.83 10.59 44.83 0 34.83"/>
      <g id="Empty">
        <path
          d="M27.33,10.15a2.51,2.51,0,0,1,3.21,1.5L35.78,26a2.42,2.42,0,0,1-1.41,3.17,2.57,2.57,0,0,1-3.29-1.46L25.84,13.36A2.51,2.51,0,0,1,27.33,10.15Z"/>
        <path
          d="M72.64,10.15a2.51,2.51,0,0,1,1.49,3.21L68.92,27.75a2.43,2.43,0,0,1-3.12,1.53A2.58,2.58,0,0,1,64.22,26l5.21-14.39A2.51,2.51,0,0,1,72.64,10.15Z"/>
        <path
          d="M50,0a2.5,2.5,0,0,1,2.5,2.5v25A2.43,2.43,0,0,1,50.1,30a2.58,2.58,0,0,1-2.59-2.5V2.5A2.5,2.5,0,0,1,50,0Z"/>
      </g>
    </g>
  </g>
</svg>
