<?xml version="1.0" encoding="utf-8"?>
<!-- Generator: Adobe Illustrator 16.0.0, SVG Export Plug-In . SVG Version: 6.00 Build 0)  -->
<!DOCTYPE svg PUBLIC "-//W3C//DTD SVG 1.0//EN" "http://www.w3.org/TR/2001/REC-SVG-20010904/DTD/svg10.dtd">
<svg version="1.0" id="Layer_1" xmlns="http://www.w3.org/2000/svg" xmlns:xlink="http://www.w3.org/1999/xlink" x="0px" y="0px"
	 width="72px" height="72px" viewBox="0 0 72 72" enable-background="new 0 0 72 72" xml:space="preserve">
<g id="_x31_6">
	<rect x="68" y="28" fill="#855600" width="4" height="4"/>
	<rect x="4" y="56" fill="#FFE21F" width="4" height="4"/>
	<rect x="8" y="56" fill="#FFE21F" width="4" height="4"/>
	<rect x="24" y="56" fill="#FFE21F" width="4" height="4"/>
	<rect x="48" y="56" fill="#FFE21F" width="4" height="4"/>
	<rect x="12" y="60" fill="#FFE21F" width="4" height="4"/>
	<rect x="16" y="60" fill="#FFE21F" width="4" height="4"/>
	<rect x="20" y="60" fill="#FFE21F" width="4" height="4"/>
	<rect x="24" y="60" fill="#FFE21F" width="4" height="4"/>
	<rect x="28" y="60" fill="#FFE21F" width="4" height="4"/>
	<rect x="32" y="60" fill="#FFE21F" width="4" height="4"/>
	<rect x="36" y="60" fill="#FFE21F" width="4" height="4"/>
	<rect x="40" y="60" fill="#FFE21F" width="4" height="4"/>
	<rect x="44" y="60" fill="#FFE21F" width="4" height="4"/>
	<rect x="48" y="60" fill="#FFE21F" width="4" height="4"/>
	<rect x="52" y="60" fill="#FFE21F" width="4" height="4"/>
	<rect x="56" y="60" fill="#FFE21F" width="4" height="4"/>
	<rect x="60" y="60" fill="#FFE21F" width="4" height="4"/>
	<rect x="64" y="60" fill="#FFE21F" width="4" height="4"/>
	<rect x="4" y="52" fill="#FFE21F" width="4" height="4"/>
	<rect x="16" y="52" fill="#855600" width="4" height="4"/>
	<rect x="20" y="52" fill="#855600" width="4" height="4"/>
	<rect x="24" y="52" fill="#855600" width="4" height="4"/>
	<rect x="28" y="52" fill="#855600" width="4" height="4"/>
	<rect x="32" y="52" fill="#855600" width="4" height="4"/>
	<rect x="36" y="52" fill="#855600" width="4" height="4"/>
	<rect x="40" y="52" fill="#855600" width="4" height="4"/>
	<rect x="44" y="52" fill="#855600" width="4" height="4"/>
	<rect x="48" y="52" fill="#855600" width="4" height="4"/>
	<rect x="52" y="52" fill="#855600" width="4" height="4"/>
	<rect x="56" y="52" fill="#855600" width="4" height="4"/>
	<rect x="60" y="52" fill="#855600" width="4" height="4"/>
	<rect x="56" y="16" fill="#BC3603" width="4" height="4"/>
	<rect x="60" y="16" fill="#FFFFFF" width="4" height="4"/>
	<rect x="52" y="20" fill="#FFFFFF" width="4" height="4"/>
	<rect x="56" y="20" fill="#8DC63F" width="4" height="4"/>
	<rect x="60" y="20" fill="#BC3603" width="4" height="4"/>
	<rect x="48" y="24" fill="#BC3603" width="4" height="4"/>
	<rect x="52" y="24" fill="#F69322" width="4" height="4"/>
	<rect x="56" y="24" fill="#8DC63F" width="4" height="4"/>
	<rect x="60" y="24" fill="#8DC63F" width="4" height="4"/>
	<rect x="64" y="24" fill="#F69322" width="4" height="4"/>
	<rect x="44" y="28" fill="#FFE21F" width="4" height="4"/>
	<rect x="48" y="28" fill="#FFE21F" width="4" height="4"/>
	<rect x="52" y="28" fill="#855600" width="4" height="4"/>
	<rect x="56" y="28" fill="#855600" width="4" height="4"/>
	<rect x="60" y="28" fill="#855600" width="4" height="4"/>
	<rect x="64" y="28" fill="#855600" width="4" height="4"/>
	<rect x="4" y="32" fill="#FFE21F" width="4" height="4"/>
	<rect x="8" y="32" fill="#FFE21F" width="4" height="4"/>
	<rect x="16" y="32" fill="#855600" width="4" height="4"/>
	<rect x="40" y="32" fill="#E6432F" width="4" height="4"/>
	<rect x="44" y="32" fill="#E6432F" width="4" height="4"/>
	<rect x="48" y="32" fill="#855600" width="4" height="4"/>
	<rect x="52" y="32" fill="#855600" width="4" height="4"/>
	<rect x="56" y="32" fill="#855600" width="4" height="4"/>
	<rect x="60" y="32" fill="#855600" width="4" height="4"/>
	<rect x="64" y="32" fill="#855600" width="4" height="4"/>
	<rect x="4" y="36" fill="#FFE21F" width="4" height="4"/>
	<rect x="12" y="36" fill="#855600" width="4" height="4"/>
	<rect x="16" y="36" fill="#855600" width="4" height="4"/>
	<rect x="40" y="36" fill="#E6432F" width="4" height="4"/>
	<rect x="44" y="36" fill="#855600" width="4" height="4"/>
	<rect x="48" y="36" fill="#855600" width="4" height="4"/>
	<rect x="52" y="36" fill="#855600" width="4" height="4"/>
	<rect x="56" y="36" fill="#855600" width="4" height="4"/>
	<rect x="60" y="36" fill="#855600" width="4" height="4"/>
	<rect y="40" fill="#FFE21F" width="4" height="4"/>
	<rect x="8" y="40" fill="#855600" width="4" height="4"/>
	<rect x="12" y="40" fill="#855600" width="4" height="4"/>
	<rect x="16" y="40" fill="#855600" width="4" height="4"/>
	<rect x="40" y="40" fill="#E6432F" width="4" height="4"/>
	<rect x="44" y="40" fill="#855600" width="4" height="4"/>
	<rect x="48" y="40" fill="#855600" width="4" height="4"/>
	<rect x="52" y="40" fill="#855600" width="4" height="4"/>
	<rect x="56" y="40" fill="#855600" width="4" height="4"/>
	<rect y="44" fill="#FFE21F" width="4" height="4"/>
	<rect x="8" y="44" fill="#855600" width="4" height="4"/>
	<rect x="12" y="44" fill="#855600" width="4" height="4"/>
	<rect x="16" y="44" fill="#855600" width="4" height="4"/>
	<rect x="20" y="44" fill="#855600" width="4" height="4"/>
	<rect x="24" y="44" fill="#855600" width="4" height="4"/>
	<rect x="28" y="44" fill="#855600" width="4" height="4"/>
	<rect x="32" y="44" fill="#855600" width="4" height="4"/>
	<rect x="36" y="44" fill="#855600" width="4" height="4"/>
	<rect x="40" y="44" fill="#855600" width="4" height="4"/>
	<rect x="44" y="44" fill="#855600" width="4" height="4"/>
	<rect x="48" y="44" fill="#855600" width="4" height="4"/>
	<rect x="52" y="44" fill="#855600" width="4" height="4"/>
	<rect x="56" y="44" fill="#855600" width="4" height="4"/>
	<rect y="48" fill="#FFE21F" width="4" height="4"/>
	<rect x="12" y="48" fill="#855600" width="4" height="4"/>
	<rect x="16" y="48" fill="#855600" width="4" height="4"/>
	<rect x="20" y="48" fill="#855600" width="4" height="4"/>
	<rect x="24" y="48" fill="#855600" width="4" height="4"/>
	<rect x="28" y="48" fill="#855600" width="4" height="4"/>
	<rect x="32" y="48" fill="#855600" width="4" height="4"/>
	<rect x="36" y="48" fill="#855600" width="4" height="4"/>
	<rect x="40" y="48" fill="#855600" width="4" height="4"/>
	<rect x="44" y="48" fill="#855600" width="4" height="4"/>
	<rect x="48" y="48" fill="#855600" width="4" height="4"/>
	<rect x="52" y="48" fill="#855600" width="4" height="4"/>
	<rect x="56" y="48" fill="#855600" width="4" height="4"/>
	<rect x="60" y="48" fill="#855600" width="4" height="4"/>
</g>
</svg>
