<svg xmlns="http://www.w3.org/2000/svg" viewBox="0 0 48 48"><defs><style>.cls-1{fill:#fff;}.cls-2{fill:#1d1d1b;}</style></defs><title>Favicon01</title><g id="Layer_2" data-name="Layer 2"><g id="Layer_1-2" data-name="Layer 1"><rect class="cls-1" width="48" height="48"/><path class="cls-2" d="M29.41,2.48c.22,0,.44.09.66.15a5.75,5.75,0,0,1,2.62,1.42A7.52,7.52,0,0,1,34.74,7.5a4.23,4.23,0,0,1,.11.62,7.26,7.26,0,0,1,0,1.4A6.07,6.07,0,0,1,34,12.23a6.82,6.82,0,0,1-1.29,1.49,10.58,10.58,0,0,1-3.35,1.89l-.95.31-.17.05a.12.12,0,0,0-.08.14c0,.35,0,.7.05,1.05l0,.4c0,.61.07,1.22.11,1.83,0,.33,0,.65.05,1s.05.84.08,1.26l.09,1.05c0,.25.05.5.07.74l.12,1.17s0,0,0,.06a.09.09,0,0,0,.12.08,2.34,2.34,0,0,0,.24-.09l.49-.25a.33.33,0,0,1,.52.23.56.56,0,0,1-.27.7c-.49.24-1,.48-1.48.7a30.08,30.08,0,0,1-4.83,1.61c-.86.21-1.73.39-2.6.53-.5.08-1,.15-1.51.21s-1.08.1-1.62.13-1.14,0-1.72,0a.63.63,0,0,1-.19,0,.48.48,0,0,1-.3-.61.43.43,0,0,1,.5-.33c.21,0,.41,0,.62,0a1.09,1.09,0,0,0,.26,0c.19-.05.22-.09.2-.28s0-.17,0-.25c-.05-.46-.11-.91-.16-1.37s-.09-.87-.13-1.3l-.15-1.43-.06-.68c-.05-.52-.09-1-.13-1.57,0-.35-.07-.7-.1-1s0-.77-.08-1.15a2,2,0,0,0,0-.34.09.09,0,0,0-.13-.08l-.16.06a11.26,11.26,0,0,1-2.22.55,5.55,5.55,0,0,1-1.08.08h-.57a6,6,0,0,1-2.26-.46,4.34,4.34,0,0,1-2.25-2,5.18,5.18,0,0,1-.52-1.63.83.83,0,0,0-.1-.35V13.14a.63.63,0,0,0,.1-.27,2.25,2.25,0,0,1,.06-.36A6.7,6.7,0,0,1,9,9,10.24,10.24,0,0,1,11.1,7.36a19.7,19.7,0,0,1,2.43-1.22,4.81,4.81,0,0,1,1.64-.35,8.58,8.58,0,0,1,2,.18A10.11,10.11,0,0,1,20,6.91c.35.18.31.22.72,0A19.89,19.89,0,0,0,23.56,4.8c.44-.38.88-.76,1.34-1.11A5.79,5.79,0,0,1,27.21,2.6l.65-.12ZM19.14,27.39a11.29,11.29,0,0,0,1.74-.1,17.51,17.51,0,0,0,2-.4,20.28,20.28,0,0,0,2.54-.81c.74-.28,1.47-.59,2.19-.91.18-.09.17-.13.16-.29-.06-.53-.1-1.06-.14-1.6,0-.25-.05-.51-.07-.77s-.07-.7-.09-1.05,0-.77-.08-1.14,0-.59-.06-.89-.07-.8-.09-1.2-.05-1-.07-1.46a.37.37,0,0,1,0-.11c0-.53-.07-1.07-.09-1.6,0-.36,0-.38.35-.38a6.88,6.88,0,0,0,1.2-.12,6.29,6.29,0,0,0,2.48-1.06,4.81,4.81,0,0,0,1.91-2.87,6.18,6.18,0,0,0,0-2.64A2.25,2.25,0,0,0,33,7.75a7.64,7.64,0,0,0-.85-1.53,5.41,5.41,0,0,0-1.58-1.47,4.79,4.79,0,0,0-1.94-.64,5.71,5.71,0,0,0-1.93.17,4.18,4.18,0,0,0-1.6.81l-.71.58A21.36,21.36,0,0,1,22,7.44a29.17,29.17,0,0,1-2.61,1.48c-.72.37-1.45.7-2.18,1-.18.09-.36.16-.55.24a.8.8,0,0,1-.59,0,.43.43,0,0,1-.22-.66.66.66,0,0,1,.29-.26l.53-.23a18.17,18.17,0,0,0,1.74-.79A3.58,3.58,0,0,0,18.87,8L19,7.89a.06.06,0,0,0,0-.08l-.15-.08a7.08,7.08,0,0,0-2.44-.58,6.51,6.51,0,0,0-1.76.14,7.36,7.36,0,0,0-3.74,2A8.14,8.14,0,0,0,8.64,13a4.39,4.39,0,0,0-.18.78,3.14,3.14,0,0,0,.65,2.34,3.69,3.69,0,0,0,1.56,1.17,5.21,5.21,0,0,0,1.95.42,8.51,8.51,0,0,0,1.51-.09,8.34,8.34,0,0,0,2.57-.93,1.51,1.51,0,0,1,.18-.09c.09,0,.15,0,.16.09s0,.38.05.57c0,.45.05.9.07,1.35s.05.61.07.91.07.74.1,1.11,0,.59.07.89L17.55,23c.05.44.09.87.14,1.31.07.6.14,1.19.22,1.79.05.39.1.77.16,1.16,0,.15.05.18.21.18Z"/><path d="M10.78,45.52a3.1,3.1,0,0,0-.53-.1A4.64,4.64,0,0,1,9,45.08a2.46,2.46,0,0,1-.45-.25.61.61,0,0,1-.16-.16.19.19,0,0,1,.14-.31.65.65,0,0,1,.31,0,5,5,0,0,0,.84.18l.23,0a7.94,7.94,0,0,0,1.54-.06,12.2,12.2,0,0,0,1.36-.31A11.21,11.21,0,0,0,15.53,43a5.31,5.31,0,0,0,1.19-1,6.92,6.92,0,0,1,.79-.74,5.37,5.37,0,0,1,1.72-1l.76-.26a6.5,6.5,0,0,0,1.86-1l.4-.34.91-.82A4.74,4.74,0,0,0,24,36.86a1.19,1.19,0,0,1,.3-.37.8.8,0,0,1,.65-.17.75.75,0,0,1,.64.67,1.77,1.77,0,0,1-.09.82,2.36,2.36,0,0,1-.31.64,5.18,5.18,0,0,1-.84,1,11.39,11.39,0,0,1-2.57,1.71,6.16,6.16,0,0,1-1.61.56,3.41,3.41,0,0,0-1.15.43l-.12.07a4.78,4.78,0,0,0-1.36.89,8.3,8.3,0,0,1-2.48,1.51,13.65,13.65,0,0,1-2,.68,11.05,11.05,0,0,1-1.15.2l-.19.05Z"/><path d="M29.56,38.08a8.83,8.83,0,0,1-2.87-.57,4.22,4.22,0,0,1-.66-.36A.92.92,0,0,1,26,35.73a.76.76,0,0,1,.75-.17l.24.09.29.12a3.27,3.27,0,0,0,1.31.24,5,5,0,0,0,1.54-.27,12.93,12.93,0,0,0,2.23-1l1-.56a4.26,4.26,0,0,1,1.21-.43,7.06,7.06,0,0,1,1.38-.19,9.45,9.45,0,0,0,2.48-.4,4.6,4.6,0,0,0,1.44-.75,3.22,3.22,0,0,0,.67-.66.64.64,0,0,1,.2-.2.19.19,0,0,1,.28.11.45.45,0,0,1,0,.28,2.44,2.44,0,0,1-.1.24,2.89,2.89,0,0,1-.69.9,5.94,5.94,0,0,1-2.12,1.16c-.52.15-1,.33-1.55.5a10.28,10.28,0,0,0-1.62.73c-.2.11-.4.22-.61.31a10.23,10.23,0,0,0-1.61,1,12.49,12.49,0,0,1-1.29.85A3.67,3.67,0,0,1,30,38,3,3,0,0,1,29.56,38.08Z"/><path d="M19.37,35.85a4.11,4.11,0,0,1-1-.17,1.8,1.8,0,0,1-.62-.34A1,1,0,0,1,18,33.8a.91.91,0,0,1,.67,0l.24.09a3.1,3.1,0,0,0,1,.23,4.36,4.36,0,0,0,2.92-1l.14-.1a.39.39,0,0,1,.46,0,.46.46,0,0,1,.18.46.77.77,0,0,1-.1.29,2.79,2.79,0,0,1-.56.72,4.49,4.49,0,0,1-1.37.87A6.51,6.51,0,0,1,19.37,35.85Z"/><path d="M27,33.51a1.82,1.82,0,0,1-.67-.1,2,2,0,0,1-.31-.13.84.84,0,0,1-.49-.81.95.95,0,0,1,1.24-1,3.25,3.25,0,0,0,.88.09,2.52,2.52,0,0,0,1-.19A3.88,3.88,0,0,0,30,30.55l.34-.34a1.29,1.29,0,0,1,.17-.16.39.39,0,0,1,.59.42c0,.1-.08.21-.13.31a4.5,4.5,0,0,1-1.09,1.43,5.49,5.49,0,0,1-1.63,1A3.29,3.29,0,0,1,27,33.51Z"/><path class="cls-1" d="M19.14,27.39a11.29,11.29,0,0,0,1.74-.1,17.51,17.51,0,0,0,2-.4,20.28,20.28,0,0,0,2.54-.81c.74-.28,1.47-.59,2.19-.91.18-.09.17-.13.16-.29-.06-.53-.1-1.06-.14-1.6,0-.25-.05-.51-.07-.77s-.07-.7-.09-1.05,0-.77-.08-1.14,0-.59-.06-.89-.07-.8-.09-1.2-.05-1-.07-1.46a.37.37,0,0,1,0-.11c0-.53-.07-1.07-.09-1.6,0-.36,0-.38.35-.38a6.88,6.88,0,0,0,1.2-.12,6.29,6.29,0,0,0,2.48-1.06,4.81,4.81,0,0,0,1.91-2.87,6.18,6.18,0,0,0,0-2.64A2.25,2.25,0,0,0,33,7.75a7.64,7.64,0,0,0-.85-1.53,5.41,5.41,0,0,0-1.58-1.47,4.79,4.79,0,0,0-1.94-.64,5.71,5.71,0,0,0-1.93.17,4.18,4.18,0,0,0-1.6.81l-.71.58A21.36,21.36,0,0,1,22,7.44a29.17,29.17,0,0,1-2.61,1.48c-.72.37-1.45.7-2.18,1-.18.09-.36.16-.55.24a.8.8,0,0,1-.59,0,.43.43,0,0,1-.22-.66.66.66,0,0,1,.29-.26l.53-.23a18.17,18.17,0,0,0,1.74-.79A3.58,3.58,0,0,0,18.87,8L19,7.89a.06.06,0,0,0,0-.08l-.15-.08a7.08,7.08,0,0,0-2.44-.58,6.51,6.51,0,0,0-1.76.14,7.36,7.36,0,0,0-3.74,2A8.14,8.14,0,0,0,8.64,13a4.39,4.39,0,0,0-.18.78,3.14,3.14,0,0,0,.65,2.34,3.69,3.69,0,0,0,1.56,1.17,5.21,5.21,0,0,0,1.95.42,8.51,8.51,0,0,0,1.51-.09,8.34,8.34,0,0,0,2.57-.93,1.51,1.51,0,0,1,.18-.09c.09,0,.15,0,.16.09s0,.38.05.57c0,.45.05.9.07,1.35s.05.61.07.91.07.74.1,1.11,0,.59.07.89L17.55,23c.05.44.09.87.14,1.31.07.6.14,1.19.22,1.79.05.39.1.77.16,1.16,0,.15.05.18.21.18Z"/></g></g></svg>